<svg width="356" height="210" viewBox="0 0 356 210" fill="none" xmlns="http://www.w3.org/2000/svg">
<path d="M178 210C276.307 210 356 208.114 356 205.787C356 203.461 276.307 201.574 178 201.574C79.6933 201.574 0 203.461 0 205.787C0 208.114 79.6933 210 178 210Z" fill="#DADADA"/>
<path d="M213.707 0H141.441V77.0569H213.707V0Z" fill="#DADADA"/>
<path d="M210.669 3.03961H144.425V74.0706H210.669V3.03961Z" fill="white"/>
<path d="M184.928 35.8355C183.276 34.1823 179.013 29.1696 179.013 25.7567V18.0244H175.602V25.7034C175.602 29.1163 171.338 34.1823 169.686 35.7821L172.084 38.1818C172.564 37.7019 175.389 34.8223 177.254 31.3027C179.119 34.7689 181.997 37.7019 182.423 38.1818L184.928 35.8355Z" fill="#EB5D8D"/>
<path d="M167.928 21.1707C165.476 19.8908 166.169 23.7303 159.401 30.9827C152.632 38.2352 152.366 56.2595 157.695 58.5526C163.025 60.8456 166.222 53.3799 171.551 54.2331C176.881 55.0863 175.175 25.0102 167.928 21.1707Z" fill="#F18DAB"/>
<path d="M187.167 21.1707C189.618 19.8908 188.925 23.7303 195.693 30.9827C202.462 38.2352 202.728 56.2595 197.399 58.5526C192.07 60.8456 188.872 53.3799 183.543 54.2331C178.213 55.0863 179.919 25.0102 187.167 21.1707Z" fill="#F18DAB"/>
<path d="M102.004 196.722H98.9659C98.9659 192.136 90.3323 189.576 82.7114 187.283C76.5826 185.47 70.7737 183.763 68.0557 180.777C65.391 183.71 59.5287 185.47 53.4 187.283C45.779 189.523 37.1455 192.082 37.1455 196.722H34.1078C34.1078 189.843 43.4874 187.07 52.5473 184.403C59.1024 182.484 66.5102 180.297 66.5102 177.098H69.5479C69.5479 180.297 76.9557 182.484 83.5108 184.403C92.624 187.123 102.004 189.896 102.004 196.722Z" fill="#B2B2B2"/>
<path d="M69.6012 162.699H66.5635V200.135H69.6012V162.699Z" fill="#B2B2B2"/>
<path d="M72.7988 154.327H63.3126V164.992H72.7988V154.327Z" fill="#323944"/>
<path d="M74.0778 156.14H35.7066C29.5778 156.14 25.5275 154.594 23.2359 151.501C20.1982 147.288 20.518 140.516 24.3551 128.944C29.7377 112.786 27.8725 94.4947 27.8725 94.3347L30.4838 94.0681C30.5904 94.8146 32.4024 113.106 26.8599 129.797C23.3425 140.356 22.8629 146.541 25.3677 150.008C27.073 152.407 30.4838 153.581 35.7066 153.581H74.0778V156.14Z" fill="#B2B2B2"/>
<path d="M94.5425 156.14H56.1713C50.0425 156.14 45.9922 154.594 43.7006 151.501C40.6629 147.288 40.9826 140.516 44.8198 128.944C50.2024 112.786 48.3371 94.4947 48.3371 94.3347L50.9485 94.0681C51.0551 94.8146 52.8671 113.106 47.3245 129.797C43.8072 140.356 43.3275 146.541 45.8323 150.008C47.5377 152.407 50.9485 153.581 56.1713 153.581H94.5425V156.14Z" fill="#B2B2B2"/>
<path d="M14.3892 91.615C14.3892 95.6679 17.6401 98.9208 21.6904 98.9208H55.8515C59.9018 98.9208 63.1527 95.6679 63.1527 91.615C63.1527 78.71 52.7072 68.2047 39.7569 68.2047H37.7317C24.888 68.2047 14.3892 78.6567 14.3892 91.615Z" fill="#E71D73"/>
<path d="M20.4114 89.9619C20.4114 82.3362 23.3958 75.4038 28.2455 70.2844C20.0916 73.964 14.4425 82.1229 14.4425 91.615C14.4425 95.6679 17.6934 98.9208 21.7437 98.9208H29.418C24.4084 98.9208 20.4114 94.9213 20.4114 89.9619Z" fill="#D60B52"/>
<path d="M40.0234 152.354C40.0234 154.434 41.7287 156.14 43.8072 156.14H92.4641C94.5425 156.14 96.2479 154.434 96.2479 152.354C96.2479 146.595 91.6114 141.955 85.8557 141.955H50.4156C44.6599 141.955 40.0234 146.595 40.0234 152.354Z" fill="#E71D73"/>
<path d="M36.9948 205.843C40.145 205.096 42.093 201.934 41.3458 198.782C40.5985 195.63 37.439 193.681 34.2888 194.428C31.1386 195.176 29.1906 198.337 29.9378 201.49C30.6851 204.642 33.8446 206.591 36.9948 205.843Z" fill="#323944"/>
<path d="M35.6533 202.001C36.6835 202.001 37.5186 201.165 37.5186 200.135C37.5186 199.104 36.6835 198.268 35.6533 198.268C34.6231 198.268 33.788 199.104 33.788 200.135C33.788 201.165 34.6231 202.001 35.6533 202.001Z" fill="#DADADA"/>
<path d="M101.801 205.851C104.951 205.103 106.899 201.942 106.152 198.79C105.404 195.637 102.245 193.688 99.0947 194.436C95.9445 195.184 93.9965 198.345 94.7437 201.497C95.491 204.65 98.6505 206.599 101.801 205.851Z" fill="#323944"/>
<path d="M100.458 198.268C99.3922 198.268 98.5928 199.121 98.5928 200.135C98.5928 201.148 99.4455 202.001 100.458 202.001C101.471 202.001 102.323 201.148 102.323 200.135C102.323 199.121 101.524 198.268 100.458 198.268Z" fill="#DADADA"/>
<path d="M65.2844 197.095V203.281C65.2844 204.827 66.5102 206.054 68.0557 206.054C69.6012 206.054 70.8269 204.827 70.8269 203.281V197.095C70.8269 195.549 69.6012 194.322 68.0557 194.322C66.5102 194.322 65.2844 195.549 65.2844 197.095Z" fill="#323944"/>
<path d="M101.471 190.589C101.471 190.589 100.725 193.575 99.0192 198.641C97.3138 203.654 96.6743 205.841 103.602 205.841C110.531 205.841 123.161 206.907 123.96 204.347C124.707 201.788 110.477 198.695 109.092 197.042C107.706 195.389 108.772 190.643 108.772 190.643H101.471V190.589Z" fill="#323944"/>
<path d="M138.456 190.589C138.456 190.589 138.243 193.575 137.39 198.641C136.591 203.654 136.325 205.841 143.253 205.841C150.234 205.841 163.025 206.907 163.344 204.347C163.664 201.788 148.849 198.695 147.196 197.042C145.544 195.442 145.757 190.643 145.757 190.643H138.456V190.589Z" fill="#323944"/>
<path d="M94.5425 116.465C94.5425 116.465 144.319 117.905 152.259 129.21C160.2 140.515 147.356 192.242 147.356 192.242H136.751C136.751 192.242 134.299 146.168 132.008 143.928C129.769 141.689 105.734 148.088 86.1755 148.088C66.6168 148.088 66.9898 116.465 66.9898 116.465H94.5425V116.465Z" fill="#074774"/>
<path d="M46.7383 116.145C46.7383 116.145 38.691 141.689 55.2653 146.968C71.8928 152.247 96.4078 145.475 101.684 146.968C106.96 148.461 99.8186 192.296 99.8186 192.296H110.904C110.904 192.296 131.102 146.221 124.334 133.796C117.565 121.318 80.9527 116.199 80.9527 116.199H46.7383V116.145Z" fill="#074E80"/>
<path d="M102.91 192.296C106.8 177.844 114.421 146.435 109.251 141.102C105.414 137.156 93.1569 138.062 81.379 138.969C72.6389 139.609 64.4317 140.249 60.4347 138.809C53.2934 136.196 52.9204 122.224 53.0802 116.145H52.7072C52.494 122.331 52.8671 136.463 60.3281 139.182C64.3784 140.675 72.6389 140.036 81.4323 139.396C93.1569 138.489 105.254 137.583 109.038 141.422C114.048 146.541 106.374 178.004 102.59 192.349H102.91V192.296Z" fill="#074774"/>
<path d="M126.465 59.1925C126.465 59.1925 126.412 51.8868 128.384 46.9274C130.356 41.968 130.196 38.9817 133.18 41.4881C136.218 43.9411 136.804 56.7395 131.955 60.7923L126.465 59.1925Z" fill="#F6AA7A"/>
<path d="M95.0222 48.9538C99.3922 50.0737 103.336 51.7268 106.587 62.7654C109.838 73.8573 111.596 89.6953 112.875 90.9751C114.154 92.255 126.465 59.1925 126.465 59.1925L132.008 60.7923C132.008 60.7923 132.647 103.614 114.154 107.72C100.565 110.759 92.2509 95.1879 88.2539 79.0833C84.2036 63.032 85.8557 46.5541 95.0222 48.9538Z" fill="#E3EAEE"/>
<path d="M95.0222 48.9538C67.3629 43.0345 46.7383 51.4068 46.7383 51.4068L49.2431 116.519H94.5425L95.0222 48.9538Z" fill="#B0CFBC"/>
<path d="M61.5006 47.8339C61.5006 47.8339 67.7892 83.2961 68.9084 116.145C68.9084 116.145 53.0802 122.544 55.6916 154.22C55.6916 154.22 37.9449 153.047 34.5341 139.076C31.1234 125.051 50.6287 81.5363 46.7383 51.4068C46.7383 51.4068 54.0928 49.0604 61.5006 47.8339Z" fill="#E3EAEE"/>
<path d="M68.8018 114.492L41.5689 102.707C41.5689 102.707 41.1425 102.707 40.4497 102.76C39.3305 107.453 38.1581 111.986 37.1988 116.199C49.5629 124.518 67.6293 115.185 68.8018 114.545C68.8018 114.492 68.8018 114.492 68.8018 114.492Z" fill="#D1DCE3"/>
<path d="M46.7383 51.4068C55.6916 48.8471 54.5192 64.7918 52.7605 77.9101C51.0018 91.0285 49.8826 100.574 54.0928 101.587C58.303 102.6 89 101.587 89 101.587L90.279 106.387C90.279 106.387 69.1216 118.705 46.7383 116.199C32.509 114.599 28.3521 92.0417 31.3898 74.9238C32.9886 65.965 38.0515 53.8598 46.7383 51.4068Z" fill="#E3EAEE"/>
<path d="M86.6551 70.5511C87.0281 73.324 87.5611 76.2037 88.2539 79.0833C91.8245 93.3215 98.7527 107.133 109.678 108.04L100.085 79.4033L86.6551 70.5511Z" fill="#D1DCE3"/>
<path d="M81.2192 47.034C81.2192 47.034 89 73.1641 93.3168 116.145C93.3168 116.145 100.085 116.679 104.402 116.998C104.402 116.998 98.8593 61.3789 95.0754 48.9538C95.0222 48.9538 85.4826 46.9807 81.2192 47.034Z" fill="#E3EAEE"/>
<path d="M89 101.534C89 101.534 89.7461 96.4144 92.7838 93.6414C95.8216 90.8685 99.2323 89.9619 100.458 91.1351C101.684 92.3083 98.4329 95.9345 97.0473 99.8273C95.6617 103.72 93.7431 106.067 90.2257 106.333L89 101.534Z" fill="#FAC498"/>
<path d="M126.465 59.1925C126.465 59.1925 124.92 56.3129 124.707 52.9C124.493 49.4871 125.08 46.2875 126.145 47.034C127.211 47.7806 125.772 50.0203 128.49 53.0599C131.208 56.0996 130.569 60.3657 130.569 60.3657L126.465 59.1925Z" fill="#FAC498"/>
<path d="M51.5347 54.6597L60.3814 58.4459L55.6383 67.5114L66.6168 85.1625C64.3784 64.2585 61.5006 47.8339 61.5006 47.8339C58.4096 48.3672 55.3186 49.0605 52.7605 49.7537L51.5347 54.6597Z" fill="white"/>
<path d="M87.8276 56.3129L91.9844 51.1402L87.4012 47.6206C85.1096 47.3007 82.818 47.034 81.2192 47.034C81.2192 47.034 85.2162 60.419 89.0533 83.7761L94.8623 65.3251L87.8276 56.3129Z" fill="white"/>
<path d="M71.6796 84.4693C71.0934 84.7359 70.294 85.0559 69.388 85.2692L69.2281 84.7359C70.294 84.4159 71.1467 84.096 71.7862 83.776C72.3192 83.4561 72.6389 82.8162 72.5323 82.2296C71.9994 79.4566 69.8677 70.1778 65.1246 67.1915C63.6323 66.2849 61.9802 66.0716 60.2749 66.5516C58.5162 67.0315 57.2371 68.0447 56.4377 69.6445C53.8796 74.6039 56.8641 83.6694 57.8234 86.3357C58.0365 86.9223 58.6228 87.2956 59.209 87.2956C59.9551 87.2956 60.9677 87.0823 62.1401 86.7623L62.3 87.2956C61.0743 87.6155 60.0617 87.8288 59.209 87.8288C58.3563 87.8288 57.5569 87.2956 57.2904 86.4957C56.2779 83.776 53.2934 74.5505 55.9581 69.3779C56.8108 67.6714 58.2497 66.5516 60.115 66.0183C62.0335 65.485 63.7922 65.7517 65.4443 66.7649C70.4006 69.8578 72.5856 79.2966 73.1186 82.1762C73.2784 83.0295 72.9054 83.936 72.106 84.3626C71.9461 84.3093 71.8395 84.3626 71.6796 84.4693Z" fill="#DADADA"/>
<path d="M56.0114 78.7633C56.0114 78.6567 53.7198 68.578 60.3281 66.7649C66.8832 64.9518 70.1874 74.7105 70.1874 74.8172L71.2533 74.4439C71.2 74.3372 67.6293 63.5119 60.0084 65.645C52.3874 67.7781 54.8922 78.87 54.8922 78.9766L56.0114 78.7633Z" fill="#323944"/>
<path d="M68.5886 84.3093C68.3754 84.3626 68.2689 84.7892 68.3754 85.2692C68.482 85.6958 68.8018 86.0157 69.015 85.9624C69.1748 85.9091 69.2814 85.6958 69.2814 85.4292L69.8677 85.2692L69.6545 84.4693L69.0683 84.6293C68.9617 84.4159 68.7485 84.256 68.5886 84.3093Z" fill="#323944"/>
<path d="M62.3 86.0691C62.5132 86.0158 62.8329 86.3357 62.9395 86.7623C63.0461 87.1889 62.9928 87.6155 62.7264 87.7222C62.5665 87.7755 62.4066 87.6155 62.2467 87.4022L61.6605 87.5622L61.4473 86.7623L62.0335 86.6023C62.0335 86.3357 62.1401 86.1224 62.3 86.0691Z" fill="#323944"/>
<path d="M94.1694 72.7374C94.1162 72.4708 88.8401 44.1011 70.8802 44.1011C66.4036 44.1011 63.206 45.4876 61.2874 48.2072C56.7042 54.6597 60.8611 66.6582 60.9144 66.7649L60.2216 67.0315C60.0617 66.4982 55.9048 54.5531 60.7012 47.7806C62.7796 44.8476 66.1904 43.3545 70.9335 43.3545C78.6611 43.3545 85.2695 48.4205 90.0659 58.0726C93.6365 65.2717 94.9689 72.5775 94.9689 72.6308L94.1694 72.7374Z" fill="#323944"/>
<path d="M94.4359 69.5912C92.7305 69.5912 91.3449 70.9777 91.3449 72.6841C91.3449 74.3906 92.7305 75.7771 94.4359 75.7771C96.1413 75.7771 97.5269 74.3906 97.5269 72.6841C97.5269 70.9777 96.1413 69.5912 94.4359 69.5912Z" fill="#323944"/>
<path d="M94.4359 70.3911C93.1569 70.3911 92.091 71.4043 92.091 72.7374C92.091 74.0173 93.1036 75.0838 94.4359 75.0838C95.7683 75.0838 96.7809 74.0706 96.7809 72.7374C96.7276 71.4043 95.715 70.3911 94.4359 70.3911Z" fill="#DADADA"/>
<path d="M65.3377 27.7298L63.4192 48.1006C63.4192 48.1006 70.1341 54.9264 74.9305 55.193C79.727 55.4596 79.4072 47.2473 79.4072 47.2473L77.2222 32.1559L65.3377 27.7298Z" fill="#FAC498"/>
<path d="M65.3377 27.7298L63.7922 43.7278C74.4509 44.0478 77.8617 37.1686 77.8617 37.1686L77.1156 32.1559L65.3377 27.7298Z" fill="#F6AA7A"/>
<path d="M73.012 11.4652C61.4473 11.4652 63.206 19.9975 63.9521 27.3032C64.6982 34.6089 71.3599 38.6084 75.6234 38.6084C79.8868 38.6084 81.2725 34.5556 82.0186 27.3032C82.818 19.9975 84.5767 11.4652 73.012 11.4652Z" fill="#FAC498"/>
<path d="M64.0587 27.9431C64.0587 27.9431 66.7233 27.9965 67.0964 23.2504C67.4695 18.5043 66.1371 16.2646 67.0964 15.2514C68.0557 14.2382 69.8677 19.1976 73.0653 19.4109C76.2629 19.6242 75.8365 17.1712 77.915 17.2245C79.9934 17.3311 80.5796 21.7572 83.5641 20.7974C86.6018 19.8375 88.3605 16.2646 83.5641 15.0914C81.912 14.6648 82.818 12.6917 81.2192 10.5053C79.6203 8.31896 75.9964 10.1321 74.7174 9.86543C73.385 9.59879 74.3976 7.4124 71.4132 7.1991C68.4287 6.98579 66.0305 11.9452 64.7515 12.4784C63.4192 13.065 60.7012 11.5185 59.7419 14.8248C58.7826 18.131 61.5539 19.9441 61.5539 21.5439C61.5539 23.1437 57.2904 23.997 59.582 27.0899C61.8736 30.1828 60.7012 34.3423 64.8581 33.2225L65.391 30.8228L64.0587 27.9431Z" fill="#323944"/>
<path d="M65.3377 27.7298C65.3377 27.7298 61.0742 22.8238 60.3281 26.1834C59.582 29.5429 65.3377 30.8228 65.3377 30.8228V27.7298Z" fill="#FAC498"/>
<path d="M146.45 106.6H90.5988V205.681H146.45V106.6Z" fill="#A48A7B"/>
<path d="M240.886 106.6H236.356V205.681H240.886V106.6Z" fill="#988072"/>
<path d="M236.356 106.6H231.826V205.681H236.356V106.6Z" fill="#A48A7B"/>
<path d="M293.22 106.6H288.69V205.681H293.22V106.6Z" fill="#988072"/>
<path d="M288.69 106.6H284.16V205.681H288.69V106.6Z" fill="#A48A7B"/>
<path d="M191.43 106.6H144.905V205.681H191.43V106.6Z" fill="#988072"/>
<path d="M297.004 104.36H86.5485V108.84H297.004V104.36Z" fill="#B5A88F"/>
<path d="M150.66 104.36H86.3353V108.84H150.66V104.36Z" fill="#CBBBA0"/>
<path d="M253.144 196.455H256.181C256.181 191.869 264.815 189.309 272.436 187.016C278.565 185.203 284.374 183.497 287.092 180.51C289.756 183.443 295.619 185.203 301.747 187.016C309.368 189.256 318.002 191.816 318.002 196.455H321.04C321.04 189.576 311.66 186.803 302.6 184.137C296.045 182.217 288.637 180.031 288.637 176.831H285.599C285.599 180.031 278.192 182.217 271.637 184.137C262.523 186.803 253.144 189.576 253.144 196.455Z" fill="#B2B2B2"/>
<path d="M288.584 162.433H285.546V199.868H288.584V162.433Z" fill="#B2B2B2"/>
<path d="M291.781 154.007H282.295V164.672H291.781V154.007Z" fill="#323944"/>
<path d="M281.069 155.82H319.441C325.569 155.82 329.62 154.274 331.911 151.181C334.949 146.968 334.629 140.196 330.792 128.624C325.41 112.466 327.275 94.1747 327.275 94.0147L324.663 93.7481C324.557 94.4947 322.745 112.786 328.287 129.477C331.805 140.036 332.284 146.221 329.78 149.688C328.074 152.087 324.663 153.261 319.441 153.261H281.069V155.82V155.82Z" fill="#B2B2B2"/>
<path d="M260.551 155.82H298.923C305.052 155.82 309.102 154.274 311.393 151.181C314.431 146.968 314.111 140.196 310.274 128.624C304.892 112.466 306.757 94.1747 306.757 94.0147L304.146 93.7481C304.039 94.4947 302.227 112.786 307.769 129.477C311.287 140.036 311.766 146.221 309.262 149.688C307.556 152.087 304.146 153.261 298.923 153.261H260.551V155.82V155.82Z" fill="#B2B2B2"/>
<path d="M340.705 91.2951C340.705 95.3479 337.454 98.6008 333.404 98.6008H299.243C295.192 98.6008 291.941 95.3479 291.941 91.2951C291.941 78.3901 302.387 67.8847 315.337 67.8847H317.362C330.259 67.8847 340.705 78.3901 340.705 91.2951Z" fill="#E71D73"/>
<path d="M334.736 89.642C334.736 82.0163 331.752 75.0838 326.902 69.9645C335.056 73.644 340.705 81.803 340.705 91.2951C340.705 95.3479 337.454 98.6008 333.404 98.6008H325.729C330.686 98.6542 334.736 94.6013 334.736 89.642Z" fill="#D60B52"/>
<path d="M315.124 152.087C315.124 154.167 313.419 155.874 311.34 155.874H262.683C260.605 155.874 258.899 154.167 258.899 152.087C258.899 146.328 263.536 141.689 269.292 141.689H304.678C310.434 141.635 315.124 146.328 315.124 152.087Z" fill="#E71D73"/>
<path d="M323.637 203.997C325.927 201.706 325.927 197.992 323.637 195.701C321.348 193.411 317.636 193.411 315.347 195.701C313.058 197.992 313.058 201.706 315.347 203.997C317.636 206.288 321.348 206.288 323.637 203.997Z" fill="#323944"/>
<path d="M319.494 201.734C320.524 201.734 321.359 200.899 321.359 199.868C321.359 198.837 320.524 198.002 319.494 198.002C318.464 198.002 317.629 198.837 317.629 199.868C317.629 200.899 318.464 201.734 319.494 201.734Z" fill="#DADADA"/>
<path d="M258.789 204.018C261.078 201.727 261.078 198.013 258.789 195.722C256.499 193.432 252.788 193.432 250.498 195.722C248.209 198.013 248.209 201.727 250.498 204.018C252.788 206.309 256.499 206.309 258.789 204.018Z" fill="#323944"/>
<path d="M254.636 197.948C255.702 197.948 256.501 198.801 256.501 199.815C256.501 200.828 255.648 201.681 254.636 201.681C253.623 201.681 252.771 200.828 252.771 199.815C252.771 198.801 253.623 197.948 254.636 197.948Z" fill="#DADADA"/>
<path d="M289.81 196.775V202.961C289.81 204.507 288.584 205.734 287.038 205.734C285.493 205.734 284.267 204.507 284.267 202.961V196.775C284.267 195.229 285.493 194.002 287.038 194.002C288.584 194.002 289.81 195.229 289.81 196.775Z" fill="#323944"/>
<path d="M253.623 190.269C253.623 190.269 254.369 193.255 256.075 198.322C257.78 203.334 258.42 205.521 251.492 205.521C244.51 205.521 231.933 206.587 231.134 204.027C230.387 201.468 244.617 198.375 246.002 196.722C247.388 195.069 246.322 190.323 246.322 190.323H253.623V190.269Z" fill="#CA9E67"/>
<path d="M216.638 190.269C216.638 190.269 216.851 193.255 217.704 198.322C218.503 203.334 218.769 205.521 211.841 205.521C204.86 205.521 192.069 206.587 191.75 204.027C191.43 201.468 206.245 198.375 207.898 196.722C209.55 195.122 209.336 190.323 209.336 190.323H216.638V190.269Z" fill="#CA9E67"/>
<path d="M260.552 116.199C260.552 116.199 210.775 117.638 202.835 128.944C194.947 140.249 207.738 191.976 207.738 191.976H218.343C218.343 191.976 220.795 145.901 223.086 143.662C225.325 141.422 249.36 147.821 268.919 147.821C288.477 147.821 288.104 116.199 288.104 116.199H260.552V116.199Z" fill="#7B6A58"/>
<path d="M308.356 115.825C308.356 115.825 316.403 141.369 299.829 146.648C283.201 151.927 258.686 145.155 253.41 146.648C248.134 148.141 255.275 191.976 255.275 191.976H244.19C244.19 191.976 223.992 145.901 230.76 133.476C237.529 120.998 274.141 115.879 274.141 115.879H308.356V115.825Z" fill="#A48A7B"/>
<path d="M252.238 191.976C248.347 177.524 240.726 146.115 245.896 140.782C249.733 136.836 261.99 137.743 273.768 138.649C282.508 139.289 290.716 139.929 294.713 138.489C301.854 135.876 302.227 121.905 302.067 115.825H302.44C302.653 122.011 302.28 136.143 294.819 138.862C290.769 140.356 282.508 139.716 273.715 139.076C261.99 138.169 249.893 137.263 246.109 141.102C241.099 146.221 248.774 177.684 252.557 192.029H252.238V191.976Z" fill="#7B6A58"/>
<path d="M260.072 48.6339C287.731 42.7146 308.356 51.0869 308.356 51.0869V116.199H260.551L260.072 48.6339Z" fill="#81CEF4"/>
<path d="M289.756 27.4099L291.728 47.7806L279.257 54.8197L275.74 46.9807L277.925 31.836L289.756 27.4099Z" fill="#FAC498"/>
<path d="M289.756 27.4099L291.302 43.4078C280.643 43.7278 277.232 36.8487 277.232 36.8487L277.978 31.836L289.756 27.4099Z" fill="#F6AA7A"/>
<path d="M282.082 11.1453C293.647 11.1453 291.888 19.6775 291.142 26.9832C290.396 34.289 283.734 38.2885 279.471 38.2885C275.207 38.2885 273.822 34.2357 273.075 26.9832C272.276 19.7308 270.517 11.1453 282.082 11.1453Z" fill="#FAC498"/>
<path d="M264.069 49.4871C256.181 44.5277 252.824 60.1524 250.799 73.2174C248.827 86.2824 247.228 95.7745 242.858 95.5612C238.541 95.3479 209.816 85.0559 209.816 85.0559L206.832 89.9619C206.832 89.9619 223.619 107.773 245.843 111.666C259.965 114.119 270.251 93.6415 272.169 76.3637C273.182 67.3515 271.743 54.3398 264.069 49.4871Z" fill="#81CEF4"/>
<path d="M289.756 27.4099C289.756 27.4099 287.518 26.0767 287.518 21.6506C287.518 17.2245 287.784 15.678 286.772 14.7715C285.759 13.8649 282.455 20.5841 272.489 20.6374C262.523 20.6907 267 10.6653 270.304 10.8786C273.608 11.0919 274.355 11.1986 278.565 11.1986C282.775 11.1986 285.173 6.82582 289.756 8.63892C294.393 10.452 292.687 13.8116 294.872 15.3581C297.057 16.8512 297.963 17.7044 297.804 21.0107C297.59 24.3169 295.192 25.9701 294.233 29.8096C293.274 33.6491 291.408 33.4891 290.289 33.0092L289.756 30.6095V27.4099Z" fill="#2D2E83"/>
<path d="M285.919 115.239C285.919 115.239 279.79 114.439 275.9 115.665C272.01 116.892 269.505 119.452 269.878 121.051C270.251 122.651 275.047 121.691 279.098 122.438C283.148 123.184 286.132 122.704 288.104 119.771L285.919 115.239Z" fill="#FAC498"/>
<path d="M289.756 27.4099C289.756 27.4099 294.02 22.5038 294.766 25.8634C295.512 29.223 289.756 30.5028 289.756 30.5028V27.4099Z" fill="#FAC498"/>
<path d="M308.356 51.0869C320.24 53.3266 333.244 80.8431 329.673 97.6943C325.623 116.839 288.104 119.825 288.104 119.825L285.866 115.239C285.866 115.239 313.312 98.0142 313.365 95.9878C313.472 94.0148 285.972 46.8741 308.356 51.0869Z" fill="#81CEF4"/>
<path d="M209.869 85.0559C209.869 85.0559 204.913 79.6699 200.117 77.4302C195.267 75.1371 193.402 72.8441 192.869 76.7369C192.336 80.6298 200.65 90.3885 206.938 90.0152L209.869 85.0559Z" fill="#F6AA7A"/>
<path d="M209.869 85.0559C209.869 85.0559 209.017 81.8563 206.832 79.2433C204.647 76.6303 202.035 74.6572 201.769 75.937C201.556 77.2169 204.06 77.8568 204.167 81.9629C204.274 86.0691 207.631 88.6821 207.631 88.6821L209.869 85.0559Z" fill="#FAC498"/>
<path d="M279.258 54.8197C279.258 54.8197 280.483 50.4469 283.734 49.3804C290.289 47.194 290.396 43.8878 291.302 43.4078C293.22 42.3946 294.233 47.5673 294.233 47.5673C294.233 47.5673 291.835 53.06 285.919 57.0594C285.919 57.0594 285.12 52.42 283.255 52.74C281.336 53.1666 280.856 55.7263 279.258 54.8197Z" fill="white"/>
<path d="M279.258 54.8197C279.258 54.8197 278.352 52.58 277.232 52.6867C276.113 52.7933 274.408 54.9264 274.408 54.9264C274.408 54.9264 273.182 49.967 273.395 47.9939C273.608 46.0208 274.408 43.5678 276.22 43.9944C276.22 43.9944 275.793 45.5409 276.326 47.4073C276.859 49.2204 278.884 50.8736 279.258 54.8197Z" fill="white"/>
</svg>
