<svg width="365" height="272" viewBox="0 0 365 272" fill="none" xmlns="http://www.w3.org/2000/svg">
<path d="M155.525 249.712C153.876 244.252 153.011 238.482 150.229 233.517C144.191 222.678 130.837 218.392 118.534 216.764C107.777 215.343 96.8347 215.219 86.0363 216.435C66.315 218.64 44.1825 224.636 28.1911 212.891C20.7312 207.41 16.1357 198.858 12.5294 190.328C6.73868 176.564 2.98811 160.574 9.06732 146.954C12.9621 138.238 20.5045 131.417 23.6162 122.392C29.9427 104.054 16.0327 83.9636 19.9687 64.9655C22.7713 51.4485 34.023 41.3931 45.4396 33.6043C80.4311 9.78465 123.336 -2.10459 165.581 0.306229C170.527 0.594703 175.72 1.15105 179.739 4.03578C184.54 7.47686 186.704 13.4524 190.145 18.2534C199.563 31.379 218.11 34.614 234.039 31.8323C249.969 29.0506 264.621 21.509 280.2 17.2231C295.779 12.9373 313.893 12.4427 326.629 22.3951C331.121 25.898 334.645 30.4929 337.881 35.1703C351.832 55.2604 361.971 81.2231 352.78 103.889C348.287 114.933 339.467 124.37 337.819 136.177C335.49 152.888 348.246 168.795 346.515 185.589C344.908 200.96 331.286 212.685 316.737 217.918C302.188 223.131 286.424 223.441 271.133 225.831C255.863 228.2 239.933 233.352 230.309 245.426C220.438 257.79 209.846 272.048 189.404 270.997C170.486 269.988 160.532 266.361 155.525 249.712Z" fill="#DAF2F0"/>
<path d="M129.621 32.7595H109.055C108.56 32.7595 108.148 32.3474 108.148 31.8529C108.148 31.3584 108.56 30.9463 109.055 30.9463H129.621C130.116 30.9463 130.528 31.3584 130.528 31.8529C130.507 32.368 130.116 32.7595 129.621 32.7595Z" fill="#356163"/>
<path d="M129.621 47.142H119.317C118.823 47.142 118.411 46.7299 118.411 46.2354C118.411 45.7408 118.823 45.3287 119.317 45.3287H129.621C130.116 45.3287 130.528 45.7408 130.528 46.2354C130.507 46.7299 130.116 47.142 129.621 47.142Z" fill="#356163"/>
<path d="M129.621 61.5039H109.055C108.56 61.5039 108.148 61.0918 108.148 60.5972C108.148 60.1027 108.56 59.6906 109.055 59.6906H129.621C130.116 59.6906 130.528 60.1027 130.528 60.5972C130.507 61.0918 130.116 61.5039 129.621 61.5039Z" fill="#356163"/>
<path d="M129.621 75.8657H119.317C118.823 75.8657 118.411 75.4536 118.411 74.9591C118.411 74.4645 118.823 74.0524 119.317 74.0524H129.621C130.116 74.0524 130.528 74.4645 130.528 74.9591C130.507 75.4742 130.116 75.8657 129.621 75.8657Z" fill="#356163"/>
<path d="M129.621 90.2276H109.055C108.56 90.2276 108.148 89.8155 108.148 89.3209C108.148 88.8264 108.56 88.4143 109.055 88.4143H129.621C130.116 88.4143 130.528 88.8264 130.528 89.3209C130.507 89.8361 130.116 90.2276 129.621 90.2276Z" fill="#356163"/>
<path d="M129.621 104.61H119.317C118.823 104.61 118.411 104.198 118.411 103.703C118.411 103.209 118.823 102.797 119.317 102.797H129.621C130.116 102.797 130.528 103.209 130.528 103.703C130.507 104.198 130.116 104.61 129.621 104.61Z" fill="#356163"/>
<path d="M129.621 118.972H109.055C108.56 118.972 108.148 118.56 108.148 118.065C108.148 117.571 108.56 117.159 109.055 117.159H129.621C130.116 117.159 130.528 117.571 130.528 118.065C130.507 118.56 130.116 118.972 129.621 118.972Z" fill="#356163"/>
<path d="M129.621 133.334H119.317C118.823 133.334 118.411 132.922 118.411 132.427C118.411 131.933 118.823 131.521 119.317 131.521H129.621C130.116 131.521 130.528 131.933 130.528 132.427C130.507 132.942 130.116 133.334 129.621 133.334Z" fill="#356163"/>
<path d="M129.621 147.696H109.055C108.56 147.696 108.148 147.284 108.148 146.789C108.148 146.294 108.56 145.882 109.055 145.882H129.621C130.116 145.882 130.528 146.294 130.528 146.789C130.507 147.304 130.116 147.696 129.621 147.696Z" fill="#356163"/>
<path d="M129.621 162.078H119.317C118.823 162.078 118.411 161.666 118.411 161.171C118.411 160.677 118.823 160.265 119.317 160.265H129.621C130.116 160.265 130.528 160.677 130.528 161.171C130.507 161.666 130.116 162.078 129.621 162.078Z" fill="#356163"/>
<path d="M134.237 164.798C133.784 164.798 133.413 164.427 133.413 163.974V31.791C133.413 31.3377 133.784 30.9668 134.237 30.9668C134.691 30.9668 135.062 31.3377 135.062 31.791V163.974C135.041 164.427 134.691 164.798 134.237 164.798Z" fill="white"/>
<path d="M133.413 163.974C133.413 163.52 133.784 163.15 134.237 163.15H266.434C266.888 163.15 267.259 163.52 267.259 163.974C267.259 164.427 266.888 164.798 266.434 164.798H134.237C133.763 164.798 133.413 164.427 133.413 163.974Z" fill="white"/>
<path d="M51.9103 76.0923V33.5631C51.9103 32.1207 50.7563 30.9668 49.3137 30.9668H2.59654C1.15402 30.9668 0 32.1207 0 33.5631V86.4362C0 87.8786 1.15402 89.0324 2.59654 89.0324H51.9103H60.0915C62.6262 89.0324 63.6566 85.7768 61.5958 84.3138L53.0025 78.1941C52.3018 77.7202 51.9103 76.9372 51.9103 76.0923Z" fill="#DD5F49"/>
<path d="M313.11 76.0923V33.5631C313.11 32.1207 314.264 30.9668 315.707 30.9668H362.403C363.846 30.9668 365 32.1207 365 33.5631V86.4362C365 87.8786 363.846 89.0324 362.403 89.0324H313.09H304.909C302.374 89.0324 301.343 85.7768 303.404 84.3138L311.998 78.1941C312.698 77.7202 313.11 76.9372 313.11 76.0923Z" fill="white"/>
<path d="M155.978 146.047L154.907 145.244L194.576 92.0614L213.906 109.308L258.253 60.9063L259.242 61.8129L214.009 111.204L194.782 94.0602L155.978 146.047Z" fill="#356163"/>
<path d="M144.747 146.047L143.675 145.223L177.204 101.56L191.464 114.501L222.396 78.2971L228.475 82.4594L260.438 47.9662L261.427 48.8728L228.681 84.2314L222.623 80.0898L191.588 116.437L177.369 103.539L144.747 146.047Z" fill="white"/>
<path d="M177.286 105.764C178.493 105.764 179.471 104.786 179.471 103.58C179.471 102.374 178.493 101.396 177.286 101.396C176.08 101.396 175.102 102.374 175.102 103.58C175.102 104.786 176.08 105.764 177.286 105.764Z" fill="#356163"/>
<path d="M144.855 147.732C146.008 147.379 146.657 146.158 146.303 145.005C145.949 143.852 144.727 143.203 143.573 143.555C142.419 143.908 141.771 145.129 142.125 146.282C142.479 147.435 143.701 148.084 144.855 147.732Z" fill="#356163"/>
<path d="M156.284 147.653C157.399 147.192 157.928 145.915 157.465 144.801C157.003 143.687 155.724 143.157 154.609 143.618C153.494 144.079 152.965 145.356 153.428 146.47C153.89 147.584 155.169 148.114 156.284 147.653Z" fill="white"/>
<path d="M194.761 95.8528C195.968 95.8528 196.946 94.8749 196.946 93.6687C196.946 92.4624 195.968 91.4845 194.761 91.4845C193.555 91.4845 192.577 92.4624 192.577 93.6687C192.577 94.8749 193.555 95.8528 194.761 95.8528Z" fill="white"/>
<path d="M214.112 111.801C215.318 111.801 216.296 110.823 216.296 109.617C216.296 108.411 215.318 107.433 214.112 107.433C212.906 107.433 211.928 108.411 211.928 109.617C211.928 110.823 212.906 111.801 214.112 111.801Z" fill="white"/>
<path d="M260.916 61.7038C261.109 60.5131 260.301 59.3915 259.11 59.1986C257.919 59.0057 256.797 59.8146 256.603 61.0052C256.409 62.1959 257.218 63.3175 258.409 63.5104C259.6 63.7033 260.722 62.8944 260.916 61.7038Z" fill="white"/>
<path d="M191.567 117.282C192.774 117.282 193.752 116.304 193.752 115.098C193.752 113.892 192.774 112.914 191.567 112.914C190.361 112.914 189.383 113.892 189.383 115.098C189.383 116.304 190.361 117.282 191.567 117.282Z" fill="#356163"/>
<path d="M223.984 80.9569C224.838 80.1047 224.838 78.7231 223.984 77.8709C223.13 77.0188 221.746 77.0188 220.892 77.8709C220.038 78.7231 220.038 80.1047 220.892 80.9569C221.746 81.809 223.13 81.809 223.984 80.9569Z" fill="#356163"/>
<path d="M228.517 85.2823C229.723 85.2823 230.701 84.3044 230.701 83.0982C230.701 81.8919 229.723 80.914 228.517 80.914C227.31 80.914 226.332 81.8919 226.332 83.0982C226.332 84.3044 227.31 85.2823 228.517 85.2823Z" fill="#356163"/>
<path d="M260.932 50.6037C262.139 50.6037 263.117 49.6258 263.117 48.4195C263.117 47.2132 262.139 46.2354 260.932 46.2354C259.726 46.2354 258.748 47.2132 258.748 48.4195C258.748 49.6258 259.726 50.6037 260.932 50.6037Z" fill="#356163"/>
<path d="M37.5469 55.6725H29.1184V47.245H22.1119V55.6725H13.6834V62.6783H22.1119V71.1059H29.1184V62.6783H37.5469V55.6725Z" fill="white"/>
<path d="M346.68 48.7286C343.094 48.708 340.189 51.5927 340.189 55.178C340.189 51.5927 337.283 48.708 333.697 48.7286C330.07 48.7492 327.206 51.8606 327.309 55.4871C327.515 62.8844 334.789 63.9559 339.488 70.9205C339.818 71.415 340.559 71.415 340.889 70.9205C345.608 63.9559 352.883 62.8844 353.068 55.4871C353.171 51.8606 350.327 48.7492 346.68 48.7286Z" fill="#DD5F49"/>
<path d="M340.333 65.4807C340.065 65.4807 339.818 65.3158 339.694 65.0686L336.706 59.0312L335.243 61.2772C335.119 61.4832 334.872 61.6069 334.645 61.6069H328.793C328.401 61.6069 328.071 61.2772 328.071 60.8857C328.071 60.4942 328.401 60.1645 328.793 60.1645H334.254L336.191 57.1767C336.335 56.9501 336.582 56.8265 336.83 56.8471C337.097 56.8677 337.324 57.0119 337.427 57.2386L340.292 63.0286L343.98 54.6629C344.104 54.395 344.351 54.2302 344.64 54.2302C344.928 54.2302 345.176 54.395 345.299 54.6629L347.298 59.2373H353.048C353.439 59.2373 353.769 59.567 353.769 59.9585C353.769 60.35 353.439 60.6796 353.048 60.6796H346.824C346.536 60.6796 346.288 60.5148 346.165 60.2469L344.619 56.744L340.972 65.0273C340.889 65.3158 340.642 65.4807 340.333 65.4807C340.353 65.4807 340.353 65.4807 340.333 65.4807Z" fill="white"/>
<path d="M281.457 74.6088C281.457 74.6088 296.624 84.8702 296.624 110.338C296.624 125.298 296.047 135.312 295.573 141.02C295.285 144.358 292.503 146.913 289.144 146.913H278.201C274.636 146.913 271.751 144.028 271.751 140.463V80.8316" fill="#356163"/>
<path d="M277.459 75.4742C277.459 75.4742 288.814 89.8567 281.086 114.109C276.553 128.368 272.967 137.723 270.762 143.018C269.484 146.109 266.043 147.696 262.849 146.686L261.88 141.514C258.48 140.443 258.521 136.878 257.697 133.416C250.134 101.828 257.099 81.2849 257.099 81.2849" fill="#356163"/>
<path d="M272.72 73.867C272.72 73.867 288.34 76.4427 287.248 93.3802C286.156 110.318 273.668 111.327 264.806 106.423C255.945 101.54 250.051 70.0344 272.72 73.867Z" fill="#F1B2A9"/>
<path d="M257.079 269.122C257.594 266.938 259.098 263.518 263.343 262.9C264.126 262.797 264.662 262.075 264.6 261.292L257.037 170.938C256.687 166.735 258.13 162.593 261.015 159.544L267.836 152.291C268.104 152.002 268.248 151.652 268.248 151.26V148.417C268.248 147.16 269.69 146.459 270.679 147.222L286.032 159.132C289.618 161.913 291.74 166.199 291.782 170.732L292.544 269.432C292.544 270.276 291.885 270.956 291.04 270.956H278.469C277.501 270.956 276.779 270.05 277.006 269.122C277.521 266.938 279.005 263.538 283.209 262.9C284.013 262.776 284.548 262.034 284.466 261.231L274.698 180.561C274.616 179.799 273.956 179.242 273.214 179.242C272.369 179.242 271.71 179.922 271.71 180.767L272.658 269.432C272.658 270.276 271.998 270.956 271.153 270.956H258.583C257.573 270.956 256.852 270.07 257.079 269.122Z" fill="#356163"/>
<path d="M283.765 112.378L275.296 110.338H272.225L261.489 111.946L253.122 113.202L259.778 160.986C266.888 162.222 288.237 160.924 288.237 160.924L291.72 114.274L283.765 112.378Z" fill="#DD5F49"/>
<path d="M286.156 123.484C286.238 123.608 290.483 129.439 294.728 139.948C298.397 149.076 302.065 161.707 302.971 177.161C303.116 179.531 303.178 181.942 303.178 184.435C303.178 187.649 305.795 190.246 309.03 190.246C312.265 190.246 314.883 187.649 314.883 184.435C314.883 181.942 314.821 179.51 314.697 177.141C312.739 139.845 296.295 117.53 295.553 116.54C293.616 113.965 289.948 113.429 287.351 115.345C284.775 117.282 284.239 120.909 286.156 123.484Z" fill="#DD5F49"/>
<path d="M214.503 137.372C216.296 137.002 218.295 136.96 220.356 137.125C225.57 137.558 231.319 139.412 235.915 141.308C235.915 141.308 235.915 141.308 235.935 141.308C236.657 141.597 237.337 141.885 237.975 142.173C237.975 142.173 237.975 142.173 237.996 142.173C240.366 143.039 244.24 144.007 246.734 142.297C250.546 139.701 252.792 128.512 257.841 121.671C259.758 119.075 258.13 115.201 255.265 113.738C252.401 112.275 248.939 113.45 247.496 116.355C246.837 117.694 244.652 120.126 239.727 129.233C234.039 126.761 227.775 125.524 219.697 125.195C217.162 125.092 214.648 125.236 212.237 125.73C209.104 126.369 207.064 129.481 207.682 132.674C208.321 135.93 211.351 138.011 214.503 137.372Z" fill="#DD5F49"/>
<path d="M302.951 177.161C303.095 179.531 303.157 181.962 303.157 184.455C303.157 187.67 305.774 190.266 309.009 190.266C312.245 190.266 314.862 187.67 314.862 184.455C314.862 181.962 314.8 179.531 314.677 177.161H302.951Z" fill="#F1B2A9"/>
<path d="M299.942 180.643C299.942 180.643 300.251 181.921 301.982 182.416C302.312 182.519 302.704 182.58 303.157 182.601C303.775 182.622 304.496 182.56 305.341 182.395L302.971 177.182L299.942 180.643Z" fill="#F1B2A9"/>
<path d="M214.503 137.372C216.296 137.002 218.295 136.96 220.356 137.125L219.696 125.236C217.162 125.133 214.648 125.277 212.237 125.772C209.949 126.225 208.259 127.997 207.724 130.161C207.641 130.531 207.579 130.923 207.559 131.314C207.538 131.768 207.579 132.242 207.662 132.716C208.321 135.93 211.35 138.011 214.503 137.372Z" fill="#F1B2A9"/>
<path d="M278.263 99.2939V110.338C278.263 110.338 277.542 114.171 273.936 114.295C270.329 114.418 269.361 110.936 269.361 110.936L267.939 99.2939" fill="#F1B2A9"/>
<path d="M286.527 89.7124C286.527 89.7124 290.916 87.5077 291.514 91.1548C292.111 94.8019 288.876 97.7279 285.805 94.7813" fill="#F1B2A9"/>
<path d="M301.982 182.395C302.312 182.498 302.704 182.56 303.157 182.58V179.284L301.982 182.395Z" fill="#DD5F49"/>
<path d="M214.133 125.463L217.45 125.318L219.697 125.236L214.318 121.939C214.318 121.939 213.597 122.557 213.494 123.567C213.452 124.103 213.597 124.741 214.133 125.463Z" fill="#F1B2A9"/>
<path d="M214.133 125.463L217.45 125.318L213.514 123.567C213.452 124.103 213.597 124.741 214.133 125.463Z" fill="#DD5F49"/>
<path d="M283.765 112.378C283.765 112.378 282.982 123.752 272.72 123.752C262.457 123.752 261.489 111.946 261.489 111.946L272.225 110.338H275.296L283.765 112.378Z" fill="#F1B2A9"/>
<path d="M269.031 108.216C269.031 108.216 270.762 109.267 274.512 108.752C274.512 108.752 273.152 111.142 269.34 110.75L269.031 108.216Z" fill="#DD5F49"/>
<path d="M259.016 124.906C259.016 124.906 252.112 129.378 253.967 138.547C255.904 148.067 265.61 145.697 265.61 145.697" fill="#DD5F49"/>
<path d="M258.418 84.726C261.427 86.5187 271.689 93.8335 287.145 90.9076C288.938 90.5779 287.083 83.9842 286.485 82.274C285.043 78.0911 281.231 71.3532 271.772 71.1059C261.53 70.838 258.15 77.7408 257.12 81.3055C256.708 82.6243 257.243 84.0254 258.418 84.726Z" fill="#356163"/>
<path d="M261.489 82.583C261.489 82.583 259.51 91.8142 256.275 93.2566L255.554 87.9198L257.099 81.3055L261.489 82.583Z" fill="#356163"/>
<path d="M92.1155 72.5895C92.1155 72.5895 77.8346 72.9192 76.6599 88.1877C75.4853 103.456 86.5103 105.949 95.0624 102.694C103.594 99.4587 112.867 72.0537 92.1155 72.5895Z" fill="#F1B2A9"/>
<path d="M100.462 270.956C100.462 270.956 100.235 263.6 93.3108 263.6L98.9573 172.731L88.3444 170.671V164.798L70.7044 172.587L68.2109 270.956H82.5125C82.5125 270.956 82.2858 263.6 75.3617 263.6L82.3888 186.372C82.4507 185.671 83.0277 185.135 83.7283 185.135C84.4702 185.135 85.0678 185.733 85.0884 186.475L86.16 270.956H100.462Z" fill="#356163"/>
<path d="M101.203 75.8039C104.459 81.3261 104.48 86.8277 104.48 86.8277C104.48 86.8277 107.283 85.0351 104.686 77.102" fill="#356163"/>
<path d="M84.9029 105.352L66.3767 108.917L68.2108 183.878C68.2108 183.878 78.9267 184.126 84.8822 180.932L88.3443 105.352H84.9029V105.352Z" fill="white"/>
<path d="M88.365 105.352L84.9029 180.932C84.9029 180.932 92.3216 185.074 100.338 183.94L109.92 107.948L88.365 105.352Z" fill="white"/>
<path d="M100.812 119.755L89.725 130.325L88.2825 131.706L86.8606 130.346L75.7532 119.776C75.1143 119.178 75.2586 118.127 76.021 117.715C77.2575 117.056 78.3291 116.437 79.1534 115.943C79.9571 115.469 79.9983 114.336 79.2564 113.779L77.7109 112.667C77.1339 112.255 77.0102 111.472 77.4018 110.895C79.4419 107.824 82.6567 106.238 84.1404 105.64C84.5938 105.455 85.1296 105.537 85.5005 105.888L87.4376 107.66C87.9322 108.113 88.6947 108.113 89.1686 107.66L91.1057 105.888C91.4767 105.558 91.9919 105.455 92.4658 105.64C93.929 106.238 97.1643 107.824 99.2045 110.895C99.596 111.472 99.4724 112.255 98.8954 112.667L97.3498 113.779C96.5873 114.315 96.6492 115.469 97.4529 115.943C98.2772 116.417 99.3487 117.035 100.585 117.715C101.306 118.107 101.43 119.157 100.812 119.755Z" fill="#E2E7E8"/>
<path d="M73.1773 119.116C73.0948 119.24 68.3757 125.772 63.6772 137.537C59.6175 147.737 55.5579 161.872 54.5481 179.18C54.4038 181.818 54.3214 184.538 54.3214 187.32C54.3214 190.905 51.4158 193.81 47.83 193.81C44.2443 193.81 41.3387 190.905 41.3387 187.32C41.3387 184.538 41.4211 181.818 41.5448 179.16C43.7085 137.434 61.9256 112.461 62.7499 111.348C64.8931 108.463 68.9527 107.866 71.8378 110.009C74.7022 112.172 75.2998 116.231 73.1773 119.116Z" fill="white"/>
<path d="M155.113 104.754C153.258 105.64 151.445 106.938 149.693 108.484C145.283 112.378 141.367 117.859 138.482 122.64C138.482 122.64 138.482 122.64 138.462 122.66C138.008 123.402 137.596 124.123 137.205 124.803C137.205 124.803 137.205 124.803 137.205 124.824C135.659 127.193 132.815 130.634 129.436 130.82C124.304 131.108 114.887 122.763 105.861 120.167C102.419 119.178 101.348 114.665 102.934 111.451C104.542 108.237 108.437 106.938 111.651 108.525C113.135 109.267 118.287 110.998 126.448 117.406C129.93 111.389 135.412 103.312 142.46 97.5837C144.665 95.791 147.014 94.225 149.507 93.0299C152.743 91.4845 156.617 92.8444 158.183 96.0795C159.708 99.3351 158.348 103.209 155.113 104.754Z" fill="white"/>
<path d="M54.5481 179.18C54.4038 181.818 54.3214 184.538 54.3214 187.34C54.3214 190.925 51.4158 193.831 47.83 193.831C44.2443 193.831 41.3387 190.925 41.3387 187.34C41.3387 184.558 41.4211 181.839 41.5448 179.18H54.5481Z" fill="#F1B2A9"/>
<path d="M57.8865 183.054C57.8865 183.054 57.5568 184.497 55.6197 185.032C55.2487 185.135 54.816 185.218 54.3214 185.238C53.6414 185.259 52.8377 185.197 51.8897 185.012L54.5275 179.18L57.8865 183.054Z" fill="#F1B2A9"/>
<path d="M155.113 104.754C153.258 105.64 151.445 106.938 149.693 108.484L142.439 97.6043C144.644 95.8116 146.993 94.2456 149.487 93.0505C151.836 91.9172 154.536 92.3293 156.432 93.8953C156.761 94.1632 157.05 94.4723 157.338 94.802C157.668 95.1935 157.936 95.6262 158.163 96.1001C159.708 99.3351 158.348 103.209 155.113 104.754Z" fill="#F1B2A9"/>
<path d="M149.487 93.0505L160.161 88.2701C160.161 88.2701 161.13 90.7015 159.502 91.7318C157.874 92.762 154.968 94.9874 154.968 94.9874" fill="#F1B2A9"/>
<path d="M84.9029 105.352C84.9029 105.352 80.7814 107.536 82.3682 111.987L88.7977 108.917L94.2175 111.987C94.2175 111.987 96.0516 108.649 92.9398 105.908" fill="white"/>
<path d="M84.9029 95.3995V105.352C84.9029 105.352 85.5623 108.814 88.7977 108.917C92.0537 109.02 92.9398 105.888 92.9398 105.888L94.2175 95.3789" fill="#F1B2A9"/>
<path d="M91.5385 121.774L89.7044 130.325L88.2619 131.706L86.84 130.346L85.0059 121.733C84.9235 121.465 84.9441 121.156 85.0677 120.888L87.6231 115.119C87.8291 114.665 87.7467 114.13 87.4376 113.779L85.9332 112.11C85.4181 111.533 85.5829 110.586 86.2424 110.235L88.2825 109.164C88.5916 108.999 88.9625 109.02 89.2717 109.205L90.5905 110.029C91.1469 110.38 91.3118 111.183 90.9203 111.76L89.4365 113.903C89.2098 114.233 89.148 114.665 89.2923 115.057L91.5179 121.012C91.6003 121.239 91.6209 121.527 91.5385 121.774Z" fill="#356163"/>
<path d="M88.1729 129.957L84.6327 181.536L85.0645 181.566L88.6047 129.986L88.1729 129.957Z" fill="#356163"/>
<path d="M77.7727 84.9939C77.7727 84.9939 74.1251 82.4594 73.136 85.6532C72.1468 88.8264 74.6609 91.8554 77.7727 89.63" fill="#F1B2A9"/>
<path d="M102.254 86.0447C102.254 86.0447 105.902 83.5102 106.891 86.7041C107.88 89.8773 105.366 92.9063 102.254 90.6809" fill="#F1B2A9"/>
<path d="M98.2772 91.773C100.792 91.773 102.831 89.7342 102.831 87.2192C102.831 84.7043 100.792 82.6655 98.2772 82.6655C95.7619 82.6655 93.7229 84.7043 93.7229 87.2192C93.7229 89.7342 95.7619 91.773 98.2772 91.773Z" fill="white"/>
<path d="M86.366 91.773C88.8813 91.773 90.9203 89.7342 90.9203 87.2192C90.9203 84.7043 88.8813 82.6655 86.366 82.6655C83.8508 82.6655 81.8118 84.7043 81.8118 87.2192C81.8118 89.7342 83.8508 91.773 86.366 91.773Z" fill="white"/>
<path d="M96.1958 87.2604C95.5775 87.2604 94.8975 87.2192 94.1762 87.1574L93.9495 87.1368L93.8465 86.9307C93.5374 86.3538 93.1665 86.0241 92.7337 85.9829C91.8888 85.8799 90.9615 86.8895 90.9615 86.8895L90.7966 87.075L77.1544 85.0763C76.9278 85.0351 76.7629 84.829 76.7835 84.5818C76.8247 84.3551 77.0308 84.1903 77.2781 84.2109L90.4669 86.1271C90.8378 85.7562 91.7858 84.9939 92.8161 85.0969C93.4756 85.1793 94.032 85.5708 94.4647 86.292C100.07 86.7865 101.966 84.8084 101.966 84.7878L102.09 84.6436H102.275L104.686 84.6848C104.933 84.6848 105.119 84.8908 105.119 85.1175C105.119 85.3648 104.933 85.5502 104.686 85.5502L102.481 85.5296C101.966 85.9829 100.173 87.2604 96.1958 87.2604Z" fill="white"/>
<path d="M77.7727 86.6217C79.4213 85.5708 82.5536 83.16 83.2955 79.6983C83.2955 79.6983 95.5776 82.6655 97.391 77.3905C97.391 77.3905 102.584 79.1832 105.51 77.9675C106.561 77.5347 106.747 76.1336 105.881 75.4124C103.285 73.2282 96.711 68.8599 88.2619 71.1265C77.9169 73.9082 76.0417 80.2546 76.5981 86.0653C76.6599 86.6217 77.2987 86.9307 77.7727 86.6217Z" fill="#356163"/>
<path d="M93.249 103.291C93.249 103.291 91.6622 104.404 88.2826 103.951C88.2826 103.951 89.4778 106.279 92.9398 105.908L93.249 103.291Z" fill="#DD5F49"/>
<path d="M55.6196 185.032C55.2487 185.135 54.8159 185.218 54.3214 185.238V181.55L55.6196 185.032Z" fill="#DD5F49"/>
<path d="M147.612 94.0396L144.541 96.1619L142.46 97.6043L145.118 91.093C145.118 91.093 146.169 91.1548 146.911 91.9584C147.302 92.4118 147.612 93.0505 147.612 94.0396Z" fill="#F1B2A9"/>
<path d="M147.612 94.0395L144.541 96.1619L146.911 91.9584C147.302 92.4117 147.612 93.0505 147.612 94.0395Z" fill="#DD5F49"/>
<path d="M157.338 94.802L154.968 94.9874L156.432 93.8953C156.761 94.1632 157.07 94.4517 157.338 94.802Z" fill="#DD5F49"/>
</svg>
