<svg xmlns="http://www.w3.org/2000/svg" xmlns:xlink="http://www.w3.org/1999/xlink" viewBox="0 0 418.52 375.28"><defs><style>.cls-1{fill:none;clip-rule:evenodd;}.cls-2{fill:#9fe3f3;opacity:0.54;}.cls-10,.cls-12,.cls-13,.cls-14,.cls-15,.cls-16,.cls-17,.cls-18,.cls-2,.cls-20,.cls-21,.cls-22,.cls-23,.cls-25,.cls-27,.cls-29,.cls-3,.cls-4,.cls-6,.cls-8,.cls-9{fill-rule:evenodd;}.cls-3{fill:#fff;}.cls-4{fill:#434f6f;}.cls-10,.cls-5{fill:#fefefe;}.cls-11,.cls-6{fill:#151d27;}.cls-7{fill:#f2f2f2;}.cls-8{fill:#f9fcfd;}.cls-9{fill:#45bad7;}.cls-12{fill:#dbdbdc;}.cls-13,.cls-16,.cls-21,.cls-29{fill:#edeeee;}.cls-14{fill:#ffac8f;}.cls-15{fill:#ff9975;}.cls-16{opacity:0.38;}.cls-17{fill:#595757;}.cls-18,.cls-19{fill:#251f1c;}.cls-20{fill:#ff9d7a;}.cls-21{opacity:0.46;}.cls-22{fill:#c1edf7;}.cls-23{fill:#c40019;}.cls-24{clip-path:url(#clip-path);}.cls-25,.cls-28{fill:#ff963e;}.cls-26{clip-path:url(#clip-path-2);}.cls-27{fill:#ff8726;}.cls-29{opacity:0.43;}</style><clipPath id="clip-path"><path class="cls-1" d="M69.09,202.16h35.15a2.11,2.11,0,0,1,2.09,2.11v40.65a2.09,2.09,0,0,1-2.09,2.08H69.09A2.11,2.11,0,0,1,67,244.92V204.27a2.14,2.14,0,0,1,2.12-2.11Z"/></clipPath><clipPath id="clip-path-2"><path class="cls-1" d="M68.68,137.2h35.15a2.1,2.1,0,0,1,2.09,2.12v40.61a2.11,2.11,0,0,1-2.09,2.11H68.68a2.13,2.13,0,0,1-2.12-2.11V139.32a2.12,2.12,0,0,1,2.12-2.12Z"/></clipPath></defs><title>doctorllogin</title><g id="Layer_2" data-name="Layer 2"><g id="OBJECTS"><path class="cls-2" d="M366,308.76c14.72-8.91,29.22-18.91,39.56-32.68s16-32,11.28-48.52c-4.63-16.2-18.17-28.25-32.32-37.39s-29.67-16.46-42-27.92c-6.38-5.92-12.13-14.07-10.63-22.64,1.63-9.32,10.83-14.93,17.5-21.62,14.36-14.4,18.05-37.46,11.67-56.76S339.39,26.38,321.51,16.7,283.27,2.75,263,1C177.61-6.5,92.2,29.57,27.55,85.87,17.26,94.83,7,105,3.58,118.25c-5.71,22.35,11.22,45.41,32.23,54.93,9.09,4.13,20,7.3,24.29,16.31,3.19,6.67,1.57,14.82-2.18,21.2s-9.38,11.38-14.73,16.49c-15,14.37-28.84,30.77-36.08,50.27s-7.1,42.61,4.33,60c11.81,17.95,33.28,27,54.22,31.86,42.43,9.83,86.47,6.25,128.94-1.35,37.43-6.7,74.93-13.59,110.13-28.19A454.7,454.7,0,0,0,366,308.76Z"/><polygon class="cls-3" points="341.57 312.42 342.94 312.42 342.94 313.89 344.42 313.89 344.42 315.18 342.94 315.18 342.94 316.64 341.57 316.64 341.57 315.18 340.09 315.18 340.09 313.89 341.57 313.89 341.57 312.42"/><polygon class="cls-3" points="105.23 304.85 106.6 304.85 106.6 306.32 108.08 306.32 108.08 307.6 106.6 307.6 106.6 309.07 105.23 309.07 105.23 307.6 103.75 307.6 103.75 306.32 105.23 306.32 105.23 304.85"/><polygon class="cls-3" points="134.95 23.18 136.32 23.18 136.32 24.64 137.8 24.64 137.8 25.93 136.32 25.93 136.32 27.4 134.95 27.4 134.95 25.93 133.47 25.93 133.47 24.64 134.95 24.64 134.95 23.18"/><polygon class="cls-3" points="327.07 69.07 328.44 69.07 328.44 70.53 329.92 70.53 329.92 71.82 328.44 71.82 328.44 73.28 327.07 73.28 327.07 71.82 325.59 71.82 325.59 70.53 327.07 70.53 327.07 69.07"/><polygon class="cls-3" points="295.44 7.62 296.81 7.62 296.81 9.09 298.29 9.09 298.29 10.37 296.81 10.37 296.81 11.84 295.44 11.84 295.44 10.37 293.96 10.37 293.96 9.09 295.44 9.09 295.44 7.62"/><polygon class="cls-3" points="1.48 314.71 2.85 314.71 2.85 316.18 4.33 316.18 4.33 317.46 2.85 317.46 2.85 318.93 1.48 318.93 1.48 317.46 0 317.46 0 316.18 1.48 316.18 1.48 314.71"/><polygon class="cls-3" points="60.36 318.93 61.73 318.93 61.73 320.39 63.21 320.39 63.21 321.68 61.73 321.68 61.73 323.14 60.36 323.14 60.36 321.68 58.88 321.68 58.88 320.39 60.36 320.39 60.36 318.93"/><path class="cls-3" d="M258.32,316.41a1.88,1.88,0,1,0-1.88-1.88A1.88,1.88,0,0,0,258.32,316.41Z"/><path class="cls-3" d="M4,193.75a1.88,1.88,0,1,0-1.87-1.88A1.89,1.89,0,0,0,4,193.75Z"/><path class="cls-3" d="M382.09,236a1.88,1.88,0,1,0-1.88-1.88A1.88,1.88,0,0,0,382.09,236Z"/><path class="cls-3" d="M84.36,80.18a1.88,1.88,0,1,0-1.87-1.88A1.88,1.88,0,0,0,84.36,80.18Z"/><path class="cls-3" d="M199.92,18.21a1.88,1.88,0,1,0-1.87-1.87A1.88,1.88,0,0,0,199.92,18.21Z"/><path class="cls-4" d="M373.86,353.31H6.5a6.39,6.39,0,0,1-6.39-6.39h0a6.39,6.39,0,0,1,6.39-6.39H373.86a6.39,6.39,0,0,1,6.39,6.39h0A6.39,6.39,0,0,1,373.86,353.31Z"/><path class="cls-5" d="M243.44,299.76c3.32-6.69,11.31-9,19.76-11.4,14.81-4.24,31.6-9.05,31.88-37.63l1,0c-.13,13.14-3.7,22.59-10.9,28.88-6.26,5.46-14.49,7.81-21.74,9.89-8.25,2.37-16,4.6-19.15,10.85-1.77,3.56-2,8.25-.66,14.34,4.27,19.56,16,16.47,33.79,11.79a154.55,154.55,0,0,1,22.9-4.74c14.26-1.55,23.82.29,28.42,5.45a10.65,10.65,0,0,1,2.19,3.76h-1.08a9.52,9.52,0,0,0-1.78-2.89c-3-3.38-10.26-7-27.66-5.14a155,155,0,0,0-22.78,4.72c-17.68,4.66-30.45,8-35-12.65C241.27,308.59,241.52,303.6,243.44,299.76Z"/><path class="cls-6" d="M343.4,340.53a9,9,0,0,0,.27-2.15h0a8.87,8.87,0,0,0-8.88-8.87h-11a8.87,8.87,0,0,0-8.87,8.87h0a9,9,0,0,0,.27,2.15Z"/><rect class="cls-7" x="147.46" y="290.55" width="83.43" height="44.21"/><path class="cls-8" d="M113.31,340.53H265a3.86,3.86,0,0,0,3.86-3.86h0a3.85,3.85,0,0,0-3.86-3.85H113.31a3.85,3.85,0,0,0-3.85,3.85h0A3.85,3.85,0,0,0,113.31,340.53Z"/><path class="cls-8" d="M39.92,100.26H351.06a8.38,8.38,0,0,1,8.35,8.35V287.34a8.37,8.37,0,0,1-8.35,8.34H39.92a8.37,8.37,0,0,1-8.37-8.34V108.61a8.38,8.38,0,0,1,8.37-8.35Z"/><path class="cls-9" d="M40.33,105.4H350.65a3.65,3.65,0,0,1,3.62,3.65V286.93a3.64,3.64,0,0,1-3.62,3.62H40.33a3.63,3.63,0,0,1-3.62-3.62V109.05a3.63,3.63,0,0,1,3.62-3.65Z"/><path class="cls-10" d="M251.14,126.66l-16.38,9.69s-9.69,12.52-19.59,53-10.76,101.21-10.76,101.21H304.77s2-63.72,7.68-86.77,13-54.06,9.33-62.24S296,118.76,296,118.76Z"/><path class="cls-11" d="M242.09,153.59s3.37,3.48,1.64,10.86c-.9,3.87-2.77,10.54-4.61,16.33a74.36,74.36,0,0,1-4,10.62c-2.47,4.48-7.74,2.25-7.74,2.25l.61-1.53s4,1.64,5.7-1.54a76.1,76.1,0,0,0,3.82-10.29c1.81-5.79,3.65-12.38,4.55-16.22,1.54-6.5-1.23-9.36-1.26-9.36Z"/><path class="cls-12" d="M207.26,240.72c11.56,1.86,33.1-6.23,39.58-7.55,24.67,6.45,42.37,10.62,62.59-11.06,0,0,.85-6.28.83-6.37l-17.05-73S278,189.4,276.06,193.38s-2.77,3.81-2.77,3.81-3.35-4.5-7.41-5.13c-7.27-1.18-12.07,5.35-18.66,5.11L216.35,196l10.18-39.87-12.63,40Z"/><path class="cls-10" d="M234.76,136.35s-12.16,6.15-19.92,16.28S178,204.11,176.72,213.36s2.36,16.82,8.18,19.62c9.88,4.72,46,5.9,59.33-1.26,0,0-2-4.86-1.48-8.73l-30.49-19.84c2.3-11.34,17.18-59.06,22.5-66.8Z"/><path class="cls-11" d="M235.14,155.81s-4,0-7.54,5.68c-1.95,3-5,8.78-7.74,14.24a109.59,109.59,0,0,0-5.54,12.3c-.94,3.1,4,3,4,3l0,1.64s-7.19.2-5.63-5.1A110.75,110.75,0,0,1,218.38,175c2.74-5.51,5.87-11.31,7.82-14.38,4.06-6.42,8.89-6.45,8.92-6.45Z"/><polygon class="cls-13" points="236.22 195.05 233.03 167.97 233.2 149.47 239.26 149.63 234.35 135.47 251.14 126.67 251.53 148.4 236.22 195.05"/><path class="cls-4" d="M288.08,120.82c-3.43,2.19-19.95,17.07-19.95,17.07L249,180.32l-12.74,14.73.33-15.75,10.08-38.15,6.88-15,34.77-8Z"/><path class="cls-14" d="M212.31,198.78c-1.62-.76-8.75-2.25-12.62,1.07s-3.68,8.68-3.68,8.68l8.7.33Z"/><polygon class="cls-6" points="251.8 143.71 236.16 180.21 236.22 195.05 248.95 180.31 260.61 144.37 251.8 143.71"/><path class="cls-15" d="M257.24,104.44l-2.56,18.36s.72,8.28,6.43,8.94,25.87-15.89,26.31-19.1l3.3-24.86Z"/><path class="cls-6" d="M252.19,133.14c-.28.55-1,10.46-.39,10.57s8.43.93,8.81.66,9.55-11,8-11.92c-2.23-1.28-12.93-3.95-16.41.69Z"/><path class="cls-4" d="M258.58,130.53c-7.55,1-12.84,12-14,11.48-.35-.17,2.26-8.54,3.27-13.62s7.74-11.44,7.52-10.56a13.59,13.59,0,0,0,3.21,12.7Z"/><path class="cls-10" d="M297.06,119.5c-5.47,42.18-18.64,79.92-24.59,80.41s-56.86-4.09-62.24-1.95c-9.58,3.84-13.31,14.13-7.63,22.67,0,0,58.67,13.09,70.72,15.67s30.65-9.69,39.13-23.9,13.56-54.7,13.64-63.31c.22-21.25-28.82-31.37-29-29.59Z"/><path class="cls-11" d="M295.68,120.63c3.43,1.7,1.4,7.87-2.6,15.91-1.71,3.38-3.79,7.22-6,11.2-5.95,10.92-12.46,22.89-13.47,30.82l-1.65-.19c1-8.24,7.66-20.37,13.67-31.4,2.14-3.92,4.17-7.68,5.92-11.17,3.57-7.19,5.6-12.59,3.35-13.69Z"/><polygon class="cls-13" points="291.73 114.59 305.34 120.46 275.24 146.53 283.03 148.87 236.22 195.05 248.95 180.31 268.13 137.89 291.73 114.59"/><path class="cls-4" d="M288.36,105.53c-3.46,10.24-31.56,24.56-29.45,25s10.26,8.21,11.69,10.19,30.74-22.75,28.62-25.06c-4.85-5.27-7.24-6.86-10.86-10.13Z"/><path class="cls-14" d="M268.49,194.83c3.24,1.37,5.38,5.41,5.38,5.41s1.12,3.92-.91,4.25-4.88-4.91-4.88-4.91.41,3.21.52,4.56-3.13,1.61-3.9.35a56.31,56.31,0,0,1-2.3-5.24s.6,4.86-.17,5.52a2.67,2.67,0,0,1-3.24-.55,30.11,30.11,0,0,1-1.56-4.86s.08,4.69-.85,5-2.75.16-2.8-2.58-1.21-2.75-1.21-2.75l-2.91-.16s2.53-3.4,5.05-4.17,11.91-.58,13.78.16Z"/><path class="cls-16" d="M200.35,208.69a14.81,14.81,0,0,0,2.25,11.94s2.58.58,6.72,1.48l.69.17c7.93,1.75,21.1,4.69,33.53,7.46,12.87,2.85,25,5.54,29.78,6.56,11.11,2.39,27.74-7.82,36.94-20.56.79-1.09,1.53-2.22,2.19-3.34,8.48-14.22,13.56-54.7,13.64-63.31a22.73,22.73,0,0,0-1.29-7.83c-.66,4-1.48,8.68-2.39,13.56-2.47,13-5.73,27.72-9.3,36.34a74.46,74.46,0,0,1-6,11.33c-8.39,13.34-20.19,24.2-26.07,25.66-4,1-21.68-.88-38.42-3.68-14.38-2.41-28.07-5.49-31.78-8l-.71-.49a21.27,21.27,0,0,1-6.31-7.14,13.54,13.54,0,0,1-1.54-4.58,15.25,15.25,0,0,0-2,4.47Z"/><path class="cls-17" d="M272.14,186.71a6.22,6.22,0,1,0-6.23-6.23,6.22,6.22,0,0,0,6.23,6.23Z"/><path class="cls-18" d="M272.14,183a2.47,2.47,0,1,0-2.47-2.47,2.48,2.48,0,0,0,2.47,2.47Z"/><path class="cls-6" d="M218.07,194.09a2.17,2.17,0,1,0-2.16-2.17,2.17,2.17,0,0,0,2.16,2.17Z"/><path class="cls-6" d="M228.26,194.78a2.16,2.16,0,1,0-2.17-2.17,2.15,2.15,0,0,0,2.17,2.17Z"/><path class="cls-6" d="M247.3,55.23a18.37,18.37,0,0,0-3.7,9.44,15.38,15.38,0,0,0,1.34,7.49l7.58-17Z"/><path class="cls-14" d="M288.41,96.7c-3.15,13.55-14.79,17-22,19.18s-13.85-.71-17.92-10.32-3.29-17.73-4.33-21.82-2-11.93,2.11-21.7c6.51-15.32,25.08-16.17,36.39-4.89,8.23,8.18,9.28,24.73,5.79,39.55Z"/><path class="cls-6" d="M288.16,87.12c-.57-.88-7.65-5.43-7.93-10.59s3.52-11.8,1.46-17.1c-2.28-5.9-19.76,4.8-34.33.27-3-.93-5.16-3.21-3.38-7.05s14.52-6.56,21.3-7.74,16.79,1.79,22.09,7.38,8.92,15.1,8.75,20.7-6.28,17.59-6.28,17.59Z"/><path class="cls-14" d="M292.61,77.21c6.59.63-1,18.25-6.09,14.46-2-1.53-.61-7.93-.14-9.71.69-2.72,2.17-5.13,6.23-4.75Z"/><path class="cls-19" d="M256.25,84.76a.23.23,0,0,1,.27-.22.24.24,0,0,1,.19.27,21.27,21.27,0,0,1-.85,4.56,10.1,10.1,0,0,1-2.47,4A1.6,1.6,0,0,0,253,94a1,1,0,0,0,.25,1,4.41,4.41,0,0,0,1.34.94,13.08,13.08,0,0,0,3.57,1.09.27.27,0,0,1,.22.28.27.27,0,0,1-.27.22,14.32,14.32,0,0,1-3.74-1.15,4.87,4.87,0,0,1-1.5-1.08,1.49,1.49,0,0,1-.33-1.5A2.49,2.49,0,0,1,253,93a10,10,0,0,0,2.38-3.81,22,22,0,0,0,.83-4.45Z"/><path class="cls-19" d="M254.9,101.88a.25.25,0,0,1,0-.35.26.26,0,0,1,.36,0,1.66,1.66,0,0,0,.38.36,8.4,8.4,0,0,0,4.64,1.15,9.39,9.39,0,0,0,5.63-1.78,6.29,6.29,0,0,0,1.15-1.21.24.24,0,0,1,.35,0,.27.27,0,0,1,0,.35,6.55,6.55,0,0,1-1.23,1.29,9.7,9.7,0,0,1-5.93,1.87,8.71,8.71,0,0,1-4.94-1.24,1.66,1.66,0,0,1-.47-.44Z"/><path class="cls-19" d="M268.08,76.46a23.67,23.67,0,0,1-3.95.35c-.73-.08-1-.47-.67-1.11.2-.43.66-.55,1.08-.7,1.39-.46,8.06-.44,7.73,1.74A19.84,19.84,0,0,0,268.08,76.46Z"/><path class="cls-19" d="M249.19,77.52a24,24,0,0,0,4-.14c.71-.16.89-.58.52-1.18-.24-.41-.72-.47-1.15-.56-1.44-.3-8.06.55-7.46,2.66A19.77,19.77,0,0,1,249.19,77.52Z"/><path class="cls-18" d="M267.55,83.94c.8,0,1.43-1,1.43-2.23s-.63-2.22-1.43-2.22-1.42,1-1.42,2.22.63,2.23,1.42,2.23Z"/><path class="cls-18" d="M251.12,85.75c.79,0,1.42-1,1.42-2.2s-.63-2.22-1.42-2.22-1.46,1-1.46,2.22.66,2.2,1.46,2.2Z"/><path class="cls-20" d="M257.76,86.13a17.93,17.93,0,0,1-2.06,6.07,5.18,5.18,0,0,0-1.1,2,9.19,9.19,0,0,1,2.91,0c1.73.22,2.61,1.92,3.16.93s-1.38-2.38-1.76-3.4-1.15-5.6-1.15-5.6Z"/><polygon class="cls-13" points="256.77 240.25 289.48 244.67 289.18 249.09 256.44 244.7 256.77 240.25"/><path class="cls-21" d="M299.11,231.14C294.78,242.5,280,279,267.94,281.91c-10.84,2.58-46.16,3.4-63.42,3.9-.08,3-.11,4.74-.11,4.74H304.77s1.26-40.34,4.66-68.44a63.46,63.46,0,0,1-10.32,9Z"/><path class="cls-22" d="M235.94,87.89l-15.75-9.63v-28a7.41,7.41,0,0,0-7.38-7.41H120.24a7.41,7.41,0,0,0-7.41,7.41v54a7.43,7.43,0,0,0,7.41,7.41h92.57a7.43,7.43,0,0,0,7.38-7.41V87.66Z"/><path class="cls-10" d="M142.42,101.06a23.78,23.78,0,1,0-23.8-23.79,23.81,23.81,0,0,0,23.8,23.79Z"/><polygon class="cls-23" points="137.42 63.46 147.38 63.46 147.38 72.3 156.22 72.3 156.22 82.26 147.38 82.26 147.38 91.1 137.42 91.1 137.42 82.26 128.58 82.26 128.58 72.3 137.42 72.3 137.42 63.46"/><path class="cls-10" d="M174.72,59.76h36a2,2,0,0,1,1.92,1.92h0a2,2,0,0,1-1.92,2h-36a1.94,1.94,0,0,1-1.93-2h0a1.94,1.94,0,0,1,1.93-1.92Z"/><path class="cls-10" d="M174.72,69.25h36a1.93,1.93,0,0,1,1.92,1.93h0a1.93,1.93,0,0,1-1.92,1.92h-36a1.92,1.92,0,0,1-1.93-1.92h0a1.92,1.92,0,0,1,1.93-1.93Z"/><path class="cls-10" d="M174.72,78.72h36a2,2,0,0,1,1.92,1.92h0a2,2,0,0,1-1.92,2h-36a1.94,1.94,0,0,1-1.93-2h0a1.94,1.94,0,0,1,1.93-1.92Z"/><path class="cls-10" d="M174.72,88.22h22.83a1.93,1.93,0,0,1,1.92,1.92h0a1.93,1.93,0,0,1-1.92,1.92H174.72a1.92,1.92,0,0,1-1.93-1.92h0a1.92,1.92,0,0,1,1.93-1.92Z"/><path class="cls-10" d="M69.09,202.16h35.15a2.11,2.11,0,0,1,2.09,2.11v40.65a2.09,2.09,0,0,1-2.09,2.08H69.09A2.11,2.11,0,0,1,67,244.92V204.27a2.14,2.14,0,0,1,2.12-2.11Z"/><path class="cls-22" d="M69.86,196.56h76.92a8.8,8.8,0,0,1,8.78,8.78v38.48a8.8,8.8,0,0,1-8.78,8.78H69.86a8.81,8.81,0,0,1-8.81-8.78V205.34a8.81,8.81,0,0,1,8.81-8.78Z"/><g class="cls-24"><path class="cls-6" d="M79.13,225.54c.22,0,13.64,0,13.64,0,2.11-2.06,4.83-11.74-1.78-16.44-3.9-2.77-8.15-.77-9.11.83a4.93,4.93,0,0,0-2.64.85c-6.28,4.85-.3,14.79-.11,14.76Z"/><path class="cls-25" d="M79.65,226.56H92.17a6.36,6.36,0,0,1,6.36,6.34v22.36H73.29V232.9a6.36,6.36,0,0,1,6.36-6.34Z"/><path class="cls-14" d="M89.45,225.76c-.19,2.39-1.76,4.23-3.62,4.23s-3.46-1.84-3.62-4.23a9.51,9.51,0,0,1-3.11-7.35c0-4.81,3-8.7,6.73-8.7s6.72,3.89,6.72,8.7a9.51,9.51,0,0,1-3.1,7.35Z"/><path class="cls-6" d="M81.68,210.61c1.65,6.26,12.93,4.42,12.9,4.39-.19-.19-1.89-4.11-4.39-5.29a11.75,11.75,0,0,0-7.35-.17,3.27,3.27,0,0,0-1.16,1.07Z"/><path class="cls-6" d="M84,211.41a8.32,8.32,0,0,1-3.13,3.65,6.37,6.37,0,0,1-3.9,1.26s.3-3.21,2.22-4.47a12.37,12.37,0,0,1,4.15-1.62Z"/></g><path class="cls-10" d="M113.3,208.75h29.86a1.31,1.31,0,0,1,1.31,1.31h0a1.33,1.33,0,0,1-1.31,1.32H113.3a1.33,1.33,0,0,1-1.32-1.32h0a1.31,1.31,0,0,1,1.32-1.31Z"/><path class="cls-10" d="M113.3,215.17h29.86a1.33,1.33,0,0,1,1.31,1.31h0a1.31,1.31,0,0,1-1.31,1.32H113.3a1.31,1.31,0,0,1-1.32-1.32h0a1.33,1.33,0,0,1,1.32-1.31Z"/><path class="cls-10" d="M113.3,221.62h29.86a1.33,1.33,0,0,1,1.31,1.31h0a1.33,1.33,0,0,1-1.31,1.32H113.3a1.33,1.33,0,0,1-1.32-1.32h0a1.33,1.33,0,0,1,1.32-1.31Z"/><path class="cls-10" d="M113.3,228.07h29.86a1.31,1.31,0,0,1,1.31,1.31h0a1.3,1.3,0,0,1-1.31,1.29H113.3a1.31,1.31,0,0,1-1.32-1.29h0a1.31,1.31,0,0,1,1.32-1.31Z"/><path class="cls-10" d="M113.3,234.49h13.75a1.31,1.31,0,0,1,1.31,1.31h0a1.31,1.31,0,0,1-1.31,1.32H113.3A1.33,1.33,0,0,1,112,235.8h0a1.33,1.33,0,0,1,1.32-1.31Z"/><path class="cls-10" d="M68.68,137.2h35.15a2.1,2.1,0,0,1,2.09,2.12v40.61a2.11,2.11,0,0,1-2.09,2.11H68.68a2.13,2.13,0,0,1-2.12-2.11V139.32a2.12,2.12,0,0,1,2.12-2.12Z"/><path class="cls-22" d="M69.44,131.6h76.93a8.81,8.81,0,0,1,8.78,8.79v38.47a8.8,8.8,0,0,1-8.78,8.78H69.44a8.82,8.82,0,0,1-8.8-8.78V140.39a8.83,8.83,0,0,1,8.8-8.79Z"/><path class="cls-10" d="M112.89,143.79h29.85a1.32,1.32,0,0,1,1.32,1.32h0a1.33,1.33,0,0,1-1.32,1.31H112.89a1.33,1.33,0,0,1-1.32-1.31h0a1.32,1.32,0,0,1,1.32-1.32Z"/><path class="cls-10" d="M112.89,150.21h29.85a1.33,1.33,0,0,1,1.32,1.32h0a1.32,1.32,0,0,1-1.32,1.32H112.89a1.32,1.32,0,0,1-1.32-1.32h0a1.33,1.33,0,0,1,1.32-1.32Z"/><path class="cls-10" d="M112.89,156.66h29.85a1.32,1.32,0,0,1,1.32,1.32h0a1.33,1.33,0,0,1-1.32,1.31H112.89a1.33,1.33,0,0,1-1.32-1.31h0a1.32,1.32,0,0,1,1.32-1.32Z"/><path class="cls-10" d="M112.89,163.08h29.85a1.33,1.33,0,0,1,1.32,1.32h0a1.32,1.32,0,0,1-1.32,1.32H112.89a1.32,1.32,0,0,1-1.32-1.32h0a1.33,1.33,0,0,1,1.32-1.32Z"/><path class="cls-10" d="M112.89,169.53h13.75a1.31,1.31,0,0,1,1.31,1.32h0a1.31,1.31,0,0,1-1.31,1.31H112.89a1.33,1.33,0,0,1-1.32-1.31h0a1.33,1.33,0,0,1,1.32-1.32Z"/><g class="cls-26"><path class="cls-6" d="M82.59,163.14c.19,0,7.52.22,7.52.22,2.11-2.06,7.63-12,1-16.72-3.92-2.77-7.62-.71-8.59.88,0,0-.54-.3-1.67.58-6.26,4.85,1.54,15.06,1.73,15Z"/><path class="cls-4" d="M80.31,164.15H92.85a6.36,6.36,0,0,1,6.34,6.34v22.37H74V170.49a6.37,6.37,0,0,1,6.36-6.34Z"/><path class="cls-14" d="M90.11,163.36c-.19,2.38-1.76,4.22-3.62,4.22s-3.43-1.84-3.63-4.22a9.56,9.56,0,0,1-3.1-7.36c0-4.8,3-8.7,6.73-8.7s6.72,3.9,6.72,8.7a9.53,9.53,0,0,1-3.1,7.36Z"/><path class="cls-6" d="M80.17,149.77c2.15-5.46,6.67-6,6.67-6a10.17,10.17,0,0,1,6.32,6.25s-7,1.68-7.22,1.51-5.77-1.81-5.77-1.81Z"/><path class="cls-6" d="M81.19,148.32c.06-.22-.49-.2.66-1.87a11.69,11.69,0,0,1,3.07-2.85v.82l2-1.59,1.75,1.81.44-.88A11.1,11.1,0,0,1,91.43,146a14.06,14.06,0,0,1,1.2,2.39Z"/><path class="cls-14" d="M79.82,158.06a1.73,1.73,0,0,0,1.62-1.81,1.62,1.62,0,1,0-1.62,1.81Z"/><path class="cls-14" d="M93.13,158.06a1.73,1.73,0,0,0,1.62-1.81,1.63,1.63,0,1,0-3.24,0,1.74,1.74,0,0,0,1.62,1.81Z"/><polygon class="cls-6" points="79.98 152.19 80.31 156.33 79.35 154.05 79.98 152.19"/><polygon class="cls-6" points="92.77 151.99 92.44 156.14 93.4 153.86 92.77 151.99"/></g><path class="cls-25" d="M153.29,223.53h18.55a1.28,1.28,0,0,1,1.26,1.27v11.49H152V224.8a1.28,1.28,0,0,1,1.26-1.27Z"/><path class="cls-27" d="M154.26,224.71h0a.59.59,0,0,1,.6.57v11.33h-1.17V225.28a.56.56,0,0,1,.57-.57Z"/><path class="cls-27" d="M157.6,224.71h0a.58.58,0,0,1,.58.57v11.33H157V225.28a.59.59,0,0,1,.6-.57Z"/><path class="cls-27" d="M160.92,224.71h0a.56.56,0,0,1,.57.57v11.33h-1.17V225.28a.59.59,0,0,1,.6-.57Z"/><path class="cls-27" d="M164.24,224.71h0a.56.56,0,0,1,.57.57v11.33h-1.17V225.28a.58.58,0,0,1,.6-.57Z"/><path class="cls-27" d="M167.55,224.71h0a.57.57,0,0,1,.58.57v11.33H167V225.28a.59.59,0,0,1,.6-.57Z"/><path class="cls-27" d="M170.87,224.71h0a.57.57,0,0,1,.58.57v11.33h-1.18V225.28a.59.59,0,0,1,.6-.57Z"/><path class="cls-10" d="M146.57,236.29h32a4.06,4.06,0,0,1,4.06,4v39.3a4.06,4.06,0,0,1-4.06,4h-32a4,4,0,0,1-4-4v-39.3a4,4,0,0,1,4-4Z"/><rect class="cls-28" x="142.54" y="251.52" width="40.08" height="18.73"/><path class="cls-4" d="M169.6,274.32h10.87v10H169.6a5,5,0,1,1,0-10Z"/><path class="cls-25" d="M191.35,274.32H180.47v10h10.88a5,5,0,0,0,0-10Z"/><path class="cls-12" d="M128,271.65a6.46,6.46,0,1,1-2.49,8.78,6.47,6.47,0,0,1,2.49-8.78Z"/><path class="cls-10" d="M128.21,272.09a5.95,5.95,0,1,1-2.3,8.11,5.93,5.93,0,0,1,2.3-8.11Z"/><path class="cls-12" d="M135.88,273.72l-10.3,5.76a5.76,5.76,0,0,0,.33.72c.13.23.27.43.41.64l10.32-5.76a4.48,4.48,0,0,0-.35-.69,3.88,3.88,0,0,0-.41-.67Z"/><path class="cls-29" d="M171.24,275.89h20.29a1.53,1.53,0,0,1,1.52,1.52h0a1.53,1.53,0,0,1-1.52,1.52H171.24a1.52,1.52,0,0,1-1.52-1.52h0a1.52,1.52,0,0,1,1.52-1.52Z"/></g></g></svg>