<svg xmlns="http://www.w3.org/2000/svg" viewBox="0 0 477.06 388.61"><defs><style>.cls-1{isolation:isolate;}.cls-2{fill:#f5f5f5;}.cls-3{fill:#e0e0e0;}.cls-14,.cls-4{fill:#27debf;}.cls-5,.cls-7{opacity:0.15;}.cls-15,.cls-6{fill:#fff;}.cls-8{fill:#455a64;}.cls-9{fill:#37474f;}.cls-10{fill:#fafafa;}.cls-11,.cls-16{opacity:0.3;}.cls-12{opacity:0.1;}.cls-13{opacity:0.2;}.cls-14,.cls-19{opacity:0.5;}.cls-15{opacity:0.4;}.cls-17{fill:#ffa8a7;}.cls-18{fill:#263238;}.cls-19{mix-blend-mode:multiply;}.cls-20{fill:#f28f8f;}</style></defs><title>login</title><g class="cls-1"><g id="Layer_2" data-name="Layer 2"><g id="Floor"><ellipse id="Floor-2" data-name="Floor" class="cls-2" cx="238.53" cy="248.48" rx="238.53" ry="140.13"/></g><g id="Shadows"><path id="Shadow" class="cls-3" d="M80.86,302.93c5.9,1.16,12.09.86,18,2a72,72,0,0,1,11.83,3.84l10.38,4.07c.69.28,9,3.13,9,3.53,14,5.22,28.23,12.72,43.64,11.82a13.74,13.74,0,0,0,12.9-14.77c-.23-2.94-1.4-5.84-1-8.75,1.16-7.82,8.33-7,14.1-5.68,3.37.78,6.7,1.73,10,2.79,8.65,2.79,17.78,5.39,24.66,11.65,4.43,4,8.7,5.64,14.69,6.31,4.18.47,8.29.73,12.29,2.11s7.38,4,11,6a30.89,30.89,0,0,0,32.12-1.83c1.54-1.1,3.13-2.72,2.83-4.59-.73-4.52-8.3-5.44-11.51-7.35Q287.12,309,278.34,304q-17.58-10-35.59-19.21c-12.83-6.57-25.83-12.85-39.38-17.76-6.68-2.42-14.29-4.46-20.67-1.35-5.15,2.52-7.18,7.28-10.52,11.52-3.1,3.95-7.13,8-11.7,10.24-3.64,1.76-7.78,2.17-11.82,2.35-13.41.6-26.83-1-40-3.46-5.59-1-11.23-2.22-16.9-1.88-6.08.37-16,1.94-19.36,7.81a7.65,7.65,0,0,0-1.13,3,5.68,5.68,0,0,0,2,4.62,12.06,12.06,0,0,0,4.6,2.36Q79.33,302.63,80.86,302.93Z"/><ellipse id="Shadow-2" data-name="Shadow" class="cls-3" cx="383.83" cy="240.92" rx="21.59" ry="12.47"/><path id="Shadow-3" data-name="Shadow" class="cls-3" d="M367.11,320.22l-3.52-2c-2.39-1.38-2.39-3.62,0-5l7.85-4.54L343,292.24l-7.86,4.53a9.57,9.57,0,0,1-8.66,0l-3.52-2c-2.39-1.39-2.39-3.62,0-5L346.8,276a9.57,9.57,0,0,1,8.66,0l3.53,2c2.39,1.38,2.39,3.62,0,5l-8.68,5,28.44,16.41,8.67-5a9.51,9.51,0,0,1,8.66,0l3.53,2c2.39,1.38,2.39,3.62,0,5l-23.84,13.76A9.57,9.57,0,0,1,367.11,320.22Z"/></g><g id="Plants"><g id="Plants-2" data-name="Plants"><path class="cls-4" d="M427.47,180.9l-9.53-5.5s-2.33-20.4-.78-36.2c2.19-22.2,16.52-48.92,33.63-42.64s-7.84,28.88-13.4,47.71S427.47,180.9,427.47,180.9Z"/><path class="cls-5" d="M427.47,180.9l-9.53-5.5s-2.33-20.4-.78-36.2c2.19-22.2,16.52-48.92,33.63-42.64s-7.84,28.88-13.4,47.71S427.47,180.9,427.47,180.9Z"/><path class="cls-6" d="M422.46,178.59h0a.58.58,0,0,0,.56-.6c-1.68-49.33,22.88-74.15,23.13-74.39a.58.58,0,0,0,0-.82.57.57,0,0,0-.82,0c-.25.24-25.17,25.42-23.48,75.25A.59.59,0,0,0,422.46,178.59Z"/><path class="cls-4" d="M433.46,184.33l-6.78-3.91s-1.15-14,5.71-31c6-14.8,20.8-27.09,28.26-24.51s7.27,7.87,3.64,13.42S438.53,157.09,433.46,184.33Z"/><path class="cls-6" d="M429.88,182.84h0a.57.57,0,0,0,.57-.57c-.13-31.2,29.16-52.28,29.45-52.49a.58.58,0,1,0-.67-.94c-.3.21-30.07,21.65-29.93,53.43A.57.57,0,0,0,429.88,182.84Z"/></g><g id="Plants-3" data-name="Plants"><path class="cls-4" d="M63.61,172.09l8-4.64s4.78-19.87,2.88-37.74C71.84,104.58,55.3,95.12,49,97.29s-8.11,9.48,2.3,24.45C57.45,130.57,65,149,63.61,172.09Z"/><g class="cls-7"><path d="M63.61,172.09l8-4.64s4.78-19.87,2.88-37.74C71.84,104.58,55.3,95.12,49,97.29s-8.11,9.48,2.3,24.45C57.45,130.57,65,149,63.61,172.09Z"/></g><path class="cls-6" d="M66.94,162.33h-.08a.56.56,0,0,1-.44-.65c4.4-23.18-3.69-49.23-13.72-60.07a.54.54,0,0,1,0-.78.56.56,0,0,1,.79,0c10.21,11,18.46,37.51,14,61A.56.56,0,0,1,66.94,162.33Z"/><path class="cls-4" d="M42.57,184.24c-1.27.64-4.64-2.24-5.58-3a11.78,11.78,0,0,1-3.69-4.69,11,11,0,0,1-.65-6.67,26.19,26.19,0,0,1,1-3.48l1.15-3.37a8.66,8.66,0,0,0,.68-3.42c-.18-2.36-2.18-4.1-4-5.61-2-1.66-4.08-3.84-3.92-6.65a9.89,9.89,0,0,1,2.77-5.77c1.44-1.64,3.11-3.06,4.42-4.8a6.88,6.88,0,0,0,1.63-4.3,7.19,7.19,0,0,0-.81-2.78c-.9-1.89-2.13-3.63-2.72-5.63s-.36-4.45,1.25-5.78c1.32-1.1,3.2-1.16,4.9-1a11.07,11.07,0,0,1,4.43,1.81c4.34,2.71,6.62,8.13,11.27,10.28a47.45,47.45,0,0,0,5.67,1.69c1.88.6,3.77,1.68,4.57,3.48,1.56,3.57-1.88,7.69-.85,11.44.92,3.32,4,4.73,5.67,7.77a7,7,0,0,1,.62,4.32,20.77,20.77,0,0,1-2.17,7.13A66,66,0,0,1,64,171.9Z"/><path class="cls-6" d="M54.87,177.83h0a.56.56,0,0,1-.51-.61c2-22-7.15-47-14.36-54.43a.56.56,0,0,1,.8-.77c7.36,7.62,16.73,33,14.67,55.31A.56.56,0,0,1,54.87,177.83Z"/><path class="cls-6" d="M52.68,150.65l-.17,0a75,75,0,0,0-15.9-3.39.55.55,0,0,1-.5-.61.53.53,0,0,1,.6-.5,75.72,75.72,0,0,1,16.18,3.46.56.56,0,0,1,.34.71A.57.57,0,0,1,52.68,150.65Z"/></g></g><g id="Dumbbell"><g id="Dumbbell-2" data-name="Dumbbell"><path class="cls-8" d="M352.62,263h0c-1.87-6.13-9.53-11.2-16.69-9.19h0a13.63,13.63,0,0,0-3.22,1.38c-6.94,4-12.57,13.75-12.57,21.77a13.32,13.32,0,0,0,.56,4h0c1.87,6.12,9.53,11.16,16.69,9.16h0a13.81,13.81,0,0,0,3.21-1.38c6.95-4,12.57-13.75,12.57-21.77A13.13,13.13,0,0,0,352.62,263Z"/><path class="cls-9" d="M340.6,288.72c6.95-4,12.57-13.75,12.57-21.77s-5.62-11.27-12.57-7.26S328,273.44,328,281.46,333.66,292.73,340.6,288.72Z"/><path class="cls-8" d="M340.6,268.58c2.67-1.54,4.84-.29,4.84,2.79a10.69,10.69,0,0,1-4.84,8.37c-2.67,1.55-4.83.3-4.83-2.79A10.68,10.68,0,0,1,340.6,268.58Z"/><path class="cls-9" d="M342.26,273.21a3.7,3.7,0,0,1-1.65,2.87,1.21,1.21,0,0,1-1.11.14l-.13-.07a1.22,1.22,0,0,1-.42-1,3.65,3.65,0,0,1,1.66-2.87,1.17,1.17,0,0,1,1.1-.15l.12.07A1.19,1.19,0,0,1,342.26,273.21Z"/><path class="cls-10" d="M368.81,288.54a3.62,3.62,0,0,1-1.65,2.86,1.37,1.37,0,0,1-.71.23,1.13,1.13,0,0,1-.56-.16L339.5,276.22l-.13-.07a1.22,1.22,0,0,1-.42-1,3.65,3.65,0,0,1,1.66-2.87,1.17,1.17,0,0,1,1.1-.15l.12.07,26.4,15.24A1.14,1.14,0,0,1,368.81,288.54Z"/><path class="cls-8" d="M394.73,287.3h0c-1.88-6.12-9.53-11.19-16.69-9.19h0a13.69,13.69,0,0,0-3.22,1.38c-6.95,4-12.57,13.75-12.57,21.77a13,13,0,0,0,.56,4h0c1.87,6.13,9.53,11.17,16.69,9.16h0a13.29,13.29,0,0,0,3.22-1.38c6.94-4,12.57-13.75,12.57-21.77A13.18,13.18,0,0,0,394.73,287.3Z"/><path class="cls-9" d="M382.71,313c6.94-4,12.57-13.75,12.57-21.77S389.65,280,382.71,284s-12.57,13.75-12.57,21.77S375.77,317,382.71,313Z"/><path class="cls-8" d="M382.71,292.88c2.67-1.54,4.83-.29,4.83,2.79a10.68,10.68,0,0,1-4.83,8.38c-2.67,1.54-4.84.29-4.84-2.79A10.69,10.69,0,0,1,382.71,292.88Z"/><path class="cls-9" d="M384.36,297.51a3.66,3.66,0,0,1-1.65,2.87,1.19,1.19,0,0,1-1.11.15l-.12-.07a1.23,1.23,0,0,1-.43-1,3.69,3.69,0,0,1,1.66-2.87,1.19,1.19,0,0,1,1.11-.15l.12.07A1.2,1.2,0,0,1,384.36,297.51Z"/><path class="cls-10" d="M388.37,299.82a3.67,3.67,0,0,1-1.66,2.87,1.45,1.45,0,0,1-.71.22,1.13,1.13,0,0,1-.56-.16l-3.84-2.22-.12-.07a1.23,1.23,0,0,1-.43-1,3.69,3.69,0,0,1,1.66-2.87,1.19,1.19,0,0,1,1.11-.15l.12.07,3.84,2.22A1.15,1.15,0,0,1,388.37,299.82Z"/><path class="cls-3" d="M388.37,299.81a3.67,3.67,0,0,1-1.66,2.87,1.19,1.19,0,0,1-1.11.15l-.12-.07a1.24,1.24,0,0,1-.42-1,3.68,3.68,0,0,1,1.65-2.87,1.19,1.19,0,0,1,1.11-.15l.12.07A1.2,1.2,0,0,1,388.37,299.81Z"/></g></g><g id="Bottle"><g id="Water"><path class="cls-4" d="M399,214.28a35.46,35.46,0,0,0-2.53-6.52c-.11-.24-.22-.47-.34-.71a13.36,13.36,0,0,1,.18-12.6l.22-.4a14.22,14.22,0,0,0,1.95-7.41,8.73,8.73,0,0,0-4.23-7,13.67,13.67,0,0,0-2-1,3.35,3.35,0,0,1-2.13-3.11v-3.84l-12.29-.05v3.84a3.38,3.38,0,0,1-2.16,3.1,14.24,14.24,0,0,0-2,.93,8.75,8.75,0,0,0-4.29,7,14.15,14.15,0,0,0,1.9,7.43l.2.38a13.42,13.42,0,0,1,.11,12.63c-.13.23-.24.47-.35.7a35.29,35.29,0,0,0-2.58,6.51,30.57,30.57,0,0,0-.6,6.61l-.07,17.88c0,2.33,1.51,4.65,4.57,6.43a21.52,21.52,0,0,0,8.88,2.59,26.34,26.34,0,0,0,4.44,0,21.49,21.49,0,0,0,8.85-2.53c3.06-1.75,4.6-4.06,4.61-6.38l.05-12.93c0-1.61.07-3.3.08-5A30.5,30.5,0,0,0,399,214.28Z"/><path class="cls-11" d="M399,214.28a35.46,35.46,0,0,0-2.53-6.52c-.11-.24-.22-.47-.34-.71a13.36,13.36,0,0,1,.18-12.6l.22-.4a14.22,14.22,0,0,0,1.95-7.41,8.73,8.73,0,0,0-4.23-7,13.67,13.67,0,0,0-2-1,3.35,3.35,0,0,1-2.13-3.11v-3.84l-12.29-.05v3.84a3.38,3.38,0,0,1-2.16,3.1,14.24,14.24,0,0,0-2,.93,8.75,8.75,0,0,0-4.29,7,14.15,14.15,0,0,0,1.9,7.43l.2.38a13.42,13.42,0,0,1,.11,12.63c-.13.23-.24.47-.35.7a35.29,35.29,0,0,0-2.58,6.51,30.57,30.57,0,0,0-.6,6.61l-.07,17.88c0,2.33,1.51,4.65,4.57,6.43a21.52,21.52,0,0,0,8.88,2.59,26.34,26.34,0,0,0,4.44,0,21.49,21.49,0,0,0,8.85-2.53c3.06-1.75,4.6-4.06,4.61-6.38l.05-12.93c0-1.61.07-3.3.08-5A30.5,30.5,0,0,0,399,214.28Z"/><path class="cls-12" d="M396.34,194.45l.22-.4a14.29,14.29,0,0,0,1.92-6.27,11.71,11.71,0,0,1-1.17,2.54,24.08,24.08,0,0,1-5.54,5.77c-2.11,1.72-4.45,3.68-4.71,6.38s1.6,5,3.7,6.59,4.56,2.69,6.45,4.52a16.35,16.35,0,0,1,2.14,2.68c-.08-.67-.18-1.33-.32-2a35.46,35.46,0,0,0-2.53-6.52c-.11-.24-.22-.47-.34-.71A13.36,13.36,0,0,1,396.34,194.45Z"/><path class="cls-4" d="M375.83,176V178c0,1.24.8,2.48,2.43,3.43a13,13,0,0,0,11.81.05,5.6,5.6,0,0,0,1.83-1.59,3.09,3.09,0,0,0,.62-1.81V176a2.6,2.6,0,0,0-.06-.56,4.47,4.47,0,0,0-2.37-2.87l-.12-.06a13.1,13.1,0,0,0-11.69,0,4.5,4.5,0,0,0-2.39,2.83A2.38,2.38,0,0,0,375.83,176Z"/><path class="cls-12" d="M375.83,176V178c0,1.24.8,2.48,2.43,3.43a13,13,0,0,0,11.81.05,5.6,5.6,0,0,0,1.83-1.59,3.09,3.09,0,0,0,.62-1.81V176a2.6,2.6,0,0,0-.06-.56,4.47,4.47,0,0,0-2.37-2.87l-.12-.06a13.1,13.1,0,0,0-11.69,0,4.5,4.5,0,0,0-2.39,2.83A2.38,2.38,0,0,0,375.83,176Z"/><path class="cls-13" d="M390.07,179.4c3.27-1.87,3.28-4.92,0-6.81a13,13,0,0,0-11.81-.05c-3.26,1.87-3.28,4.92,0,6.82A13,13,0,0,0,390.07,179.4Z"/><path class="cls-4" d="M375.84,173.55v1.24a2.29,2.29,0,0,0,.06.58,4.51,4.51,0,0,0,2.37,2.86,11.5,11.5,0,0,0,5.22,1.4,12.34,12.34,0,0,0,6.59-1.36,5.74,5.74,0,0,0,1.84-1.59,3.29,3.29,0,0,0,.55-1.23,2.76,2.76,0,0,0,.06-.57V173.6c0-1.24-.8-2.48-2.43-3.43l-.44-.23a13.13,13.13,0,0,0-11.37.19C376.66,171.07,375.84,172.31,375.84,173.55Z"/><path class="cls-12" d="M375.84,173.55v1.24a2.29,2.29,0,0,0,.06.58,4.51,4.51,0,0,0,2.37,2.86,11.5,11.5,0,0,0,5.22,1.4,12.34,12.34,0,0,0,6.59-1.36,5.74,5.74,0,0,0,1.84-1.59,3.29,3.29,0,0,0,.55-1.23,2.76,2.76,0,0,0,.06-.57V173.6c0-1.24-.8-2.48-2.43-3.43l-.44-.23a13.13,13.13,0,0,0-11.37.19C376.66,171.07,375.84,172.31,375.84,173.55Z"/><path class="cls-4" d="M375.84,173.51c0,2.65,3.72,4.81,8.33,4.83s8.36-2.12,8.37-4.77-3.72-4.81-8.33-4.83S375.85,170.86,375.84,173.51Z"/><path class="cls-4" d="M381.32,168.58l0,4.32a1.49,1.49,0,0,0,0,.21,1.58,1.58,0,0,0,.82,1,4.08,4.08,0,0,0,1.81.48,4.22,4.22,0,0,0,2.29-.47,1.92,1.92,0,0,0,.63-.55,1.09,1.09,0,0,0,.19-.43,1.25,1.25,0,0,0,0-.19V168.6a1.45,1.45,0,0,0-.84-1.19l-.15-.08a4.57,4.57,0,0,0-3.94.07A1.42,1.42,0,0,0,381.32,168.58Z"/><path class="cls-12" d="M381.32,168.58l0,4.32a1.49,1.49,0,0,0,0,.21,1.58,1.58,0,0,0,.82,1,4.08,4.08,0,0,0,1.81.48,4.22,4.22,0,0,0,2.29-.47,1.92,1.92,0,0,0,.63-.55,1.09,1.09,0,0,0,.19-.43,1.25,1.25,0,0,0,0-.19V168.6a1.45,1.45,0,0,0-.84-1.19l-.15-.08a4.57,4.57,0,0,0-3.94.07A1.42,1.42,0,0,0,381.32,168.58Z"/><path class="cls-4" d="M381.32,168.57c0,.92,1.29,1.67,2.88,1.67s2.9-.73,2.9-1.65-1.29-1.67-2.88-1.67S381.32,167.65,381.32,168.57Z"/><path class="cls-14" d="M383.18,168.58c0,.32.46.59,1,.59s1-.26,1-.59-.46-.59-1-.59S383.18,168.25,383.18,168.58Z"/><path class="cls-11" d="M383.18,168.58c0,.32.46.59,1,.59s1-.26,1-.59-.46-.59-1-.59S383.18,168.25,383.18,168.58Z"/></g></g><g id="Speech_Bubble" data-name="Speech Bubble"><g id="Speach_Bubble" data-name="Speach Bubble"><path class="cls-4" d="M327.19.27l-72.54,41.9a2.45,2.45,0,0,0-1.12,1.93V74.27a2.45,2.45,0,0,0,1.12,1.93l4,2.24a2.51,2.51,0,0,0,2.25,0l72.54-41.89a2.47,2.47,0,0,0,1.12-1.94V4.44a2.44,2.44,0,0,0-1.13-1.93l-4-2.25A2.52,2.52,0,0,0,327.19.27Z"/><path class="cls-4" d="M259.79,77.79V47.62a2.48,2.48,0,0,1,1.12-1.94L333.45,3.79c.62-.36,1.12-.07,1.12.65V34.6a2.47,2.47,0,0,1-1.12,1.94L260.91,78.43C260.29,78.79,259.79,78.5,259.79,77.79Z"/><path class="cls-13" d="M260.91,78.43a2.58,2.58,0,0,1-2.25,0l-4-2.26a2.42,2.42,0,0,1-1.12-1.92V44.1a2.36,2.36,0,0,1,.35-1.14l6.24,3.56a2.22,2.22,0,0,0-.33,1.1V77.78C259.79,78.44,260.25,78.81,260.91,78.43Z"/><path class="cls-15" d="M334.55,4.23c-.09-.56-.55-.76-1.1-.44L260.91,45.68a2.29,2.29,0,0,0-.79.84L253.88,43a2.25,2.25,0,0,1,.77-.79L327.19.27a2.49,2.49,0,0,1,2.24,0l4,2.25A2.49,2.49,0,0,1,334.55,4.23Z"/><path class="cls-4" d="M250.46,67.62c-.7-.42-6-3.38-6.14-3.48a1,1,0,0,1-.22-1.59l9.52-7.88,6.17,3.5-9.52,7.88A1.05,1.05,0,0,0,250.46,67.62Z"/><path class="cls-12" d="M250.46,67.62c-.7-.42-6-3.38-6.14-3.48a1,1,0,0,1-.22-1.59l9.52-7.88,6.17,3.5-9.52,7.88A1.05,1.05,0,0,0,250.46,67.62Z"/><path class="cls-4" d="M259.79,58.17l-9.52,7.88a1,1,0,0,0,.64,1.72l8.88-1Z"/><path class="cls-10" d="M265.48,55.37a.67.67,0,0,1-.06-.42,1.38,1.38,0,0,1,.14-.5L268.35,49l.26-.47a.85.85,0,0,1,.34-.38l1.58-.92a.19.19,0,0,1,.25,0,.59.59,0,0,1,.1.38V62.59a1.24,1.24,0,0,1-.1.5.69.69,0,0,1-.25.33l-1.7,1a.17.17,0,0,1-.24,0,.59.59,0,0,1-.11-.38V53.89l-1.54,3a.55.55,0,0,1-.26.28.2.2,0,0,1-.24-.11Z"/><path class="cls-10" d="M275.45,60a1.24,1.24,0,0,1-.1.5.64.64,0,0,1-.25.33l-1.7,1a.17.17,0,0,1-.24,0,.57.57,0,0,1-.11-.38v-3a1.25,1.25,0,0,1,.11-.5.74.74,0,0,1,.24-.33l1.7-1a.18.18,0,0,1,.25,0,.58.58,0,0,1,.1.38Z"/><path class="cls-10" d="M279.83,57.43a1.27,1.27,0,0,1-.1.5.66.66,0,0,1-.25.32l-1.7,1a.18.18,0,0,1-.25-.05.58.58,0,0,1-.1-.38v-3a1.27,1.27,0,0,1,.1-.5.69.69,0,0,1,.25-.33l1.7-1a.19.19,0,0,1,.25,0,.59.59,0,0,1,.1.38Z"/><path class="cls-10" d="M284.21,54.9a1.25,1.25,0,0,1-.11.5.69.69,0,0,1-.25.33l-1.7,1a.17.17,0,0,1-.24,0,.59.59,0,0,1-.11-.38v-3a1.21,1.21,0,0,1,.11-.49.64.64,0,0,1,.24-.33l1.7-1a.18.18,0,0,1,.25,0,.57.57,0,0,1,.11.38Z"/><path class="cls-10" d="M293.38,39.26a12,12,0,0,1-.07,1.34A9.9,9.9,0,0,1,293,42a13.77,13.77,0,0,1-.49,1.45q-.32.77-.75,1.59L290,48.5l3.26-1.89a.18.18,0,0,1,.25,0,.56.56,0,0,1,.1.37v2.45a1.24,1.24,0,0,1-.1.5.69.69,0,0,1-.25.33l-6.85,4a.18.18,0,0,1-.25-.05.58.58,0,0,1-.1-.38v-2a3.71,3.71,0,0,1,.08-.79,2.78,2.78,0,0,1,.29-.79l3.88-7.18a5.68,5.68,0,0,0,.58-1.43,5.55,5.55,0,0,0,.11-1,4,4,0,0,0,0-.43,1.28,1.28,0,0,0-.15-.49.66.66,0,0,0-.33-.31.69.69,0,0,0-.58.13,1.67,1.67,0,0,0-.59.56,3.05,3.05,0,0,0-.35.7,4.46,4.46,0,0,0-.18.67l-.09.47a1.35,1.35,0,0,1-.2.55,1,1,0,0,1-.31.28l-1.6.92a.13.13,0,0,1-.2,0,.46.46,0,0,1-.09-.31,11,11,0,0,1,.24-2.06,10.51,10.51,0,0,1,.67-2.13,8.6,8.6,0,0,1,1.11-1.91,5.39,5.39,0,0,1,1.58-1.4,2.51,2.51,0,0,1,1.51-.42,1.68,1.68,0,0,1,1.1.56,3.29,3.29,0,0,1,.67,1.35A7.48,7.48,0,0,1,293.38,39.26Z"/><path class="cls-10" d="M297.88,47a1.29,1.29,0,0,1-.11.5.65.65,0,0,1-.24.32l-1.71,1a.17.17,0,0,1-.24,0,.56.56,0,0,1-.1-.37v-3a1.27,1.27,0,0,1,.1-.5.65.65,0,0,1,.24-.32l1.71-1a.17.17,0,0,1,.24,0,.54.54,0,0,1,.11.37Z"/><path class="cls-10" d="M302.25,44.48a1.24,1.24,0,0,1-.1.5.69.69,0,0,1-.25.33l-1.7,1a.19.19,0,0,1-.25,0,.59.59,0,0,1-.1-.38v-3a1.24,1.24,0,0,1,.1-.5.6.6,0,0,1,.25-.33l1.7-1a.18.18,0,0,1,.25,0,.58.58,0,0,1,.1.38Z"/><path class="cls-10" d="M306.63,42a1.24,1.24,0,0,1-.11.49.64.64,0,0,1-.24.33l-1.7,1a.18.18,0,0,1-.25,0,.58.58,0,0,1-.1-.38v-3a1.24,1.24,0,0,1,.1-.5.69.69,0,0,1,.25-.33l1.7-1a.17.17,0,0,1,.24,0,.59.59,0,0,1,.11.38Z"/><path class="cls-10" d="M315.34,21.39a.19.19,0,0,1,.25,0,.66.66,0,0,1,.1.38v2.45a1.52,1.52,0,0,1-.09.51c-.06.18-.12.32-.17.45l-1.57,3.72a1.79,1.79,0,0,1,1.65.61,3.9,3.9,0,0,1,.63,2.53,9.37,9.37,0,0,1-1,4.5,7.25,7.25,0,0,1-2.83,3,3.69,3.69,0,0,1-1.66.57,1.94,1.94,0,0,1-1.21-.34,2.27,2.27,0,0,1-.76-1,4.15,4.15,0,0,1-.28-1.51,1,1,0,0,1,.09-.41.46.46,0,0,1,.2-.26l1.63-.95c.19-.1.32-.11.42,0l.32.29a1,1,0,0,0,.45.21,1.25,1.25,0,0,0,.8-.24,3.05,3.05,0,0,0,1-1,2.52,2.52,0,0,0,.41-1.42c0-.54-.14-.85-.41-.94a1.31,1.31,0,0,0-1,.23l-1.08.62a.17.17,0,0,1-.24,0,.57.57,0,0,1-.11-.38V31a1.52,1.52,0,0,1,.09-.51c.06-.17.12-.33.18-.47l1.38-3.27-3.39,2a.17.17,0,0,1-.24,0,.59.59,0,0,1-.11-.38V25.8a1.29,1.29,0,0,1,.11-.5.65.65,0,0,1,.24-.32Z"/><path class="cls-10" d="M320.43,34a1.29,1.29,0,0,1-.11.5.6.6,0,0,1-.24.32l-1.7,1a.18.18,0,0,1-.25,0,.58.58,0,0,1-.1-.38v-3a1.27,1.27,0,0,1,.1-.5.69.69,0,0,1,.25-.33l1.7-1a.17.17,0,0,1,.24,0,.59.59,0,0,1,.11.38Z"/><path class="cls-10" d="M324.8,31.46a1.24,1.24,0,0,1-.1.5.69.69,0,0,1-.25.33l-1.7,1a.17.17,0,0,1-.24,0,.59.59,0,0,1-.11-.38v-3a1.25,1.25,0,0,1,.11-.5.64.64,0,0,1,.24-.33l1.7-1a.18.18,0,0,1,.25,0,.58.58,0,0,1,.1.38Z"/><path class="cls-10" d="M329.18,28.94a1.43,1.43,0,0,1-.1.49.65.65,0,0,1-.25.33l-1.7,1a.18.18,0,0,1-.25,0,.58.58,0,0,1-.1-.38v-3a1.24,1.24,0,0,1,.1-.5.69.69,0,0,1,.25-.33l1.7-1a.19.19,0,0,1,.25,0,.66.66,0,0,1,.1.38Z"/></g></g><g id="Character"><g id="Character-2" data-name="Character"><g class="cls-16"><path d="M137.22,209.39l-.15,0-5.72-1.62a.79.79,0,1,1,.43-1.52l5.72,1.62a.79.79,0,0,1-.28,1.55Z"/><path d="M131.34,213.82a.79.79,0,0,1-.12-1.55l5.77-1.46a.8.8,0,0,1,1,.57.79.79,0,0,1-.57,1l-5.77,1.46A.82.82,0,0,1,131.34,213.82Z"/><path d="M134.24,219.14a.81.81,0,0,1-.49-.24.78.78,0,0,1,0-1.11l4.27-4.15a.8.8,0,0,1,1.12,0,.79.79,0,0,1,0,1.11l-4.27,4.15A.77.77,0,0,1,134.24,219.14Z"/><path d="M139.42,222.3l-.15,0a.78.78,0,0,1-.54-1l1.62-5.73a.78.78,0,0,1,1-.54.79.79,0,0,1,.55,1l-1.62,5.73A.8.8,0,0,1,139.42,222.3Z"/></g><path class="cls-17" d="M295.63,133.49l-14.29,8.25L250,146.28S227,111.86,223.5,106.45s-7.61-8.87-17.12-8.87l1.8,27.46c.29.89,19.27,24.26,31.78,37,4.41,4.5,7.13,5.64,14,3.72,17.64-4.88,39-19.37,40.73-23C297,138,295.47,133.59,295.63,133.49Z"/><g id="Dumbbell-3" data-name="Dumbbell"><path class="cls-8" d="M289.75,116.09h0c1.87-6.13,9.53-11.2,16.69-9.19h0a14,14,0,0,1,3.22,1.37c6.94,4,12.57,13.76,12.57,21.78a13.37,13.37,0,0,1-.56,4h0c-1.87,6.13-9.53,11.17-16.69,9.17h0a13.75,13.75,0,0,1-3.21-1.37c-6.95-4-12.57-13.76-12.57-21.77A13.13,13.13,0,0,1,289.75,116.09Z"/><path class="cls-9" d="M301.77,141.81c-6.95-4-12.57-13.76-12.57-21.77s5.62-11.27,12.57-7.27,12.57,13.76,12.57,21.78S308.71,145.82,301.77,141.81Z"/><path class="cls-8" d="M301.77,121.67c-2.67-1.55-4.84-.3-4.84,2.79a10.69,10.69,0,0,0,4.84,8.37c2.67,1.54,4.83.29,4.83-2.79A10.68,10.68,0,0,0,301.77,121.67Z"/><path class="cls-9" d="M300.11,126.29a3.67,3.67,0,0,0,1.65,2.87,1.19,1.19,0,0,0,1.11.15l.13-.07a1.24,1.24,0,0,0,.42-1,3.68,3.68,0,0,0-1.66-2.87,1.19,1.19,0,0,0-1.1-.14l-.12.07A1.18,1.18,0,0,0,300.11,126.29Z"/><path class="cls-10" d="M273.56,141.62a3.64,3.64,0,0,0,1.65,2.87,1.35,1.35,0,0,0,.71.22,1,1,0,0,0,.56-.16l26.39-15.24.13-.07a1.24,1.24,0,0,0,.42-1,3.68,3.68,0,0,0-1.66-2.87,1.19,1.19,0,0,0-1.1-.14l-.12.07-26.4,15.23A1.15,1.15,0,0,0,273.56,141.62Z"/><path class="cls-8" d="M247.64,140.39h0c1.88-6.13,9.53-11.2,16.69-9.19h0a13.29,13.29,0,0,1,3.22,1.38c6.95,4,12.57,13.75,12.57,21.77a13,13,0,0,1-.56,4h0c-1.87,6.12-9.53,11.16-16.69,9.16h0a13.69,13.69,0,0,1-3.22-1.38c-6.94-4-12.57-13.75-12.57-21.77A13.13,13.13,0,0,1,247.64,140.39Z"/><path class="cls-9" d="M259.66,166.11c-6.94-4-12.57-13.75-12.57-21.77s5.63-11.27,12.57-7.26,12.57,13.75,12.57,21.77S266.6,170.12,259.66,166.11Z"/><path class="cls-8" d="M259.66,146c-2.67-1.54-4.83-.29-4.83,2.79a10.68,10.68,0,0,0,4.83,8.37c2.67,1.55,4.84.3,4.84-2.79A10.69,10.69,0,0,0,259.66,146Z"/><path class="cls-9" d="M258,150.59a3.67,3.67,0,0,0,1.65,2.88,1.21,1.21,0,0,0,1.11.14l.12-.07a1.19,1.19,0,0,0,.43-1,3.68,3.68,0,0,0-1.66-2.87,1.19,1.19,0,0,0-1.11-.15l-.12.07A1.18,1.18,0,0,0,258,150.59Z"/><path class="cls-10" d="M254,152.91a3.63,3.63,0,0,0,1.66,2.86,1.35,1.35,0,0,0,.71.22,1.12,1.12,0,0,0,.56-.15l3.84-2.23.12-.07a1.19,1.19,0,0,0,.43-1,3.68,3.68,0,0,0-1.66-2.87,1.19,1.19,0,0,0-1.11-.15l-.12.07-3.84,2.22A1.14,1.14,0,0,0,254,152.91Z"/><path class="cls-3" d="M254,152.9a3.68,3.68,0,0,0,1.66,2.87,1.18,1.18,0,0,0,1.11.14.37.37,0,0,0,.12-.07,1.22,1.22,0,0,0,.42-1,3.67,3.67,0,0,0-1.65-2.87,1.19,1.19,0,0,0-1.11-.15l-.12.07A1.2,1.2,0,0,0,254,152.9Z"/></g><path class="cls-17" d="M286.48,149.81c6.07-4.64,11.89-4.6,10.84-15.93-.89-5-2.13-5.36-7-7.25-2.14-.84-5-1.46-6.71.5a5.83,5.83,0,0,1-.63.68,3.44,3.44,0,0,1-1.67.54,4.89,4.89,0,0,0-3.07,1.29c-.56.65-.78,1.54-1.34,2.2a14.54,14.54,0,0,1-1.73,1.38,4.12,4.12,0,0,0-1.43,3.07,4.54,4.54,0,0,0,1.84,3.38l3.06-1.76c1.25-.86,3.83,2.21,2.72,3.83C279.58,144.32,286.48,149.81,286.48,149.81Z"/><path class="cls-17" d="M215.78,172.57c1.94-7.85,2.5-27.44,2.5-27.44l-56.79,1.7s2.38,9.49,3.1,12.38a50.88,50.88,0,0,1,.81,8.45s5.51,10.2,21.85,12A44.21,44.21,0,0,0,215.78,172.57Z"/><path class="cls-8" d="M218.28,145.13c.06.62-.33,6.55-.33,6.55-7.26,6.11-30.56,9.21-55,1.07l-5.18-20s17.59-7.72,5.71-33.62l12.77-1,22.66-.57h7.45a83.9,83.9,0,0,1,15.33,20.28C224.68,123.41,228.46,131.52,218.28,145.13Z"/><path class="cls-9" d="M186.18,145.31c-10.23-2.61-12.8-9-13.52-13.7,0,0-1.94,13.7,12.69,16.89,15.42,3.37,21.76-8.84,21.76-8.84S198.52,148.46,186.18,145.31Z"/><path class="cls-18" d="M99.1,297.76c-3,2.2-9.92,2.72-16-.14s-8.64-11-7.5-17.29c1.38-7.67,5.17-11.86,6.14-16.47s0-11,1.45-15.13a11.81,11.81,0,0,1,7-6.88,7.13,7.13,0,0,1,6.26.55l1.8,1.07Z"/><path class="cls-9" d="M106.25,268.52l-4.74,14.21s3,10.15,1.31,12.84c-2.49,4-6.88,4.7-14.27,2.45-8.45-2.58-10.45-10.22-10-16.17.59-8.46,8.42-14.84,7.53-23-.44-4,.11-8.47,2.29-11.9,2.45-3.85,6.48-4.57,10.65-3.31,3.58,1.08,6.72,3.32,9.74,5.44a10.51,10.51,0,0,1,2.35,2,7.46,7.46,0,0,1,1.2,2.41,12.54,12.54,0,0,1,.47,5.41c-.22,1.7-1.3,2.69-2.31,4Z"/><path class="cls-17" d="M126.68,261.78c-.29-.11-14.77-9.37-16.34-10.07s-5.39-1.69-9.1,6.9c-2.65,6.12,1.16,8.38,1.16,8.38l16.94,10.09Z"/><path class="cls-4" d="M101.51,282.73a21.08,21.08,0,0,0-9.88-2.21,1.56,1.56,0,0,1-1.64-2v0a1.55,1.55,0,0,1,1.35-1.06c2.29-.18,7.86-.24,11.55,2.79C103.86,282.23,101.51,282.73,101.51,282.73Z"/><path class="cls-4" d="M103.25,276.23a21.25,21.25,0,0,0-9.76-2.71,1.55,1.55,0,0,1-1.53-2.1v0a1.53,1.53,0,0,1,1.41-1c2.3-.06,7.85.16,11.38,3.38C105.62,275.86,103.25,276.23,103.25,276.23Z"/><path class="cls-11" d="M101.51,282.73a21.08,21.08,0,0,0-9.88-2.21,1.56,1.56,0,0,1-1.64-2v0a1.55,1.55,0,0,1,1.35-1.06c2.29-.18,7.86-.24,11.55,2.79C103.86,282.23,101.51,282.73,101.51,282.73Z"/><path class="cls-11" d="M103.25,276.23a21.25,21.25,0,0,0-9.76-2.71,1.55,1.55,0,0,1-1.53-2.1v0a1.53,1.53,0,0,1,1.41-1c2.3-.06,7.85.16,11.38,3.38C105.62,275.86,103.25,276.23,103.25,276.23Z"/><path class="cls-17" d="M250.82,299.3l18.8-7.46c-.31-4.84-1.51-11.31-.27-24L248,263.74V285.1Z"/><path class="cls-18" d="M304.48,315.82a6.25,6.25,0,0,1-.25,4.61c-.65,1.35-7.7,5.33-17.21,4.69a39.71,39.71,0,0,1-19.66-6.88c-3.62-2.4-7.4-2.85-12.11-3.12s-10.89-2.61-11.92-4.82.15-6,.15-6Z"/><path class="cls-9" d="M266.11,286.14l.75-.15a2.84,2.84,0,0,1,1.26-.07,2.45,2.45,0,0,1,1.17.79,23.23,23.23,0,0,1,2.43,3.81c2,3.26,6.18,6,10.75,8.41,3.1,1.67,6.15,3,9.36,4.4s7.61,2.37,10.17,4.1c3.73,2.51,4.21,8.83,0,11.33-3.67,2.15-13.32,4.48-23.44,1.62-5.51-1.57-11.63-7.46-18.87-8-4.6-.36-13.3-1.66-16.26-5.15-1.1-1.55.37-6.46,1.57-10.7,1.31-4.63,1.79-12.8,3.32-12.39,0,0-.41,1.16.19,1.77s2.71,1.86,3.33,2.39a12.07,12.07,0,0,1,2.54,3.66,2.76,2.76,0,0,0,1.31,1.42c.78.29,1.36-.2,2-.51a3.9,3.9,0,0,1,2.75-.2,16.66,16.66,0,0,0-.48-2.72,1.54,1.54,0,0,1-.07-.87,1.41,1.41,0,0,1,.59-.67A14.8,14.8,0,0,1,266.11,286.14Z"/><path class="cls-4" d="M278.17,296.42s-.66-1.76-3.4-2.27c-2.09-.39-5.79,1.15-8.09,3.05a1.71,1.71,0,0,0,.25,2.83h0a1.71,1.71,0,0,0,2-.22A13.16,13.16,0,0,1,278.17,296.42Z"/><path class="cls-4" d="M284.66,300.06a4.91,4.91,0,0,0-4-2.08s-5.46.16-8.85,3.31A1.69,1.69,0,0,0,272,304h0a1.66,1.66,0,0,0,1.89-.22A13.17,13.17,0,0,1,284.66,300.06Z"/><path class="cls-4" d="M291.83,303.33a5.52,5.52,0,0,0-4.19-1.87s-5.09.19-8.47,3.34a1.68,1.68,0,0,0,.23,2.75h0a1.65,1.65,0,0,0,1.88-.22C282.81,306,285.65,302.87,291.83,303.33Z"/><path class="cls-11" d="M278.17,296.42s-.66-1.76-3.4-2.27c-2.09-.39-5.79,1.15-8.09,3.05a1.71,1.71,0,0,0,.25,2.83h0a1.71,1.71,0,0,0,2-.22A13.16,13.16,0,0,1,278.17,296.42Z"/><path class="cls-11" d="M284.66,300.06a4.91,4.91,0,0,0-4-2.08s-5.46.16-8.85,3.31A1.69,1.69,0,0,0,272,304h0a1.66,1.66,0,0,0,1.89-.22A13.17,13.17,0,0,1,284.66,300.06Z"/><path class="cls-11" d="M291.83,303.33a5.52,5.52,0,0,0-4.19-1.87s-5.09.19-8.47,3.34a1.68,1.68,0,0,0,.23,2.75h0a1.65,1.65,0,0,0,1.88-.22C282.81,306,285.65,302.87,291.83,303.33Z"/><path class="cls-4" d="M263.67,192c-14.29-3.21-48.44-10.35-48.44-10.35l.55-9.11c-12.36,6.4-38.39,4.59-50.38-4.91l-1.89,9.66A97.16,97.16,0,0,0,151.76,195c-2.74,5.42-7.33,13.89-2.76,33.62,2.67,11.59,6.25,42.1,6.25,42.1l-35-12.9s-3,.51-5.55,7.07c-1.49,3.88-2,7.61-.47,9.54,12.79,10.11,33.54,26.63,54.49,35.89,14,5.36,21.44-6.42,22.13-10.78,2.62-16.7,5.66-70.35,5.66-70.35l46.71-1.49c-1.54,8.86,4.76,43.47,4.76,43.47s11.51,5,21.06-.12c0,0,6.38-39.84,7-53.12C276.75,203.12,277.51,195.14,263.67,192Z"/><path class="cls-5" d="M243.26,227.71c0-2.4,1.59-10.75,7-15.19,0,0-7.41,1.32-10.81,15.31Z"/><path class="cls-5" d="M155.25,270.73s.95,13.18,3.52,19.59c0,0-6.32-11.4-7-20.89Z"/><path class="cls-5" d="M215.22,181.68l.55-9.11c-12.36,6.39-38.37,4.59-50.36-4.91h0l-1.89,9.66h0c.09.1,7.8,8,27.82,9.09S215.22,181.68,215.22,181.68Z"/><path class="cls-5" d="M196.55,229.2a36.5,36.5,0,0,0-12.25-26.08s10.77,4.95,14.36,20.82c0,0,8-3.72,12.18-14.91,0,0-1.28,11.19-7.72,17.54l19.42,1.8Z"/><path class="cls-18" d="M190.26,26.94h0A31.26,31.26,0,0,0,159,58.2h0a31.25,31.25,0,0,0,31.26,31.25h0A31.25,31.25,0,0,0,221.51,58.2h0A31.26,31.26,0,0,0,190.26,26.94Z"/><path class="cls-18" d="M157.66,46a17.24,17.24,0,0,1,3.37.19,1.59,1.59,0,0,1,1,.46,1.47,1.47,0,0,1,.25.77,11,11,0,0,1-.47,5.16c-.44,1.16-1.82,1.75-2.69,2.59-3.38,3.28-3.65,8.71-2.32,13.23s4,8.52,5.74,12.88,2.64,9.61.2,14c-1,1.68-2.68,3-2.48,5,.25,2.45,2.38,4.8,3.31,7a17.06,17.06,0,0,1,1,8.23,17.48,17.48,0,0,1-3.74,9.47,14.3,14.3,0,0,1-13.64,4.68,6.8,6.8,0,0,1-2.88-1.23c-1.48-1.17-2.06-3.11-2.86-4.82-2.58-5.52-8-9.55-9.65-15.42-1.75-6.2,1.24-12.74,4.9-18,1.71-2.48,3.62-4.92,4.45-7.82,1.13-3.91.15-8.07-.11-12.14a33.78,33.78,0,0,1,1.34-11.78c.83-2.76,2.1-5.94,4.25-7.91A17.5,17.5,0,0,1,157.66,46Z"/><path class="cls-17" d="M209.85,41.25c3.42,2,7.63,10.69,7.13,28.8-.41,15.34-5.4,19.11-7.9,20.19s-7.32.4-12-.4l0,9.21s6.44,7.54,6,11.76-9.37,5.18-15.4,1-11.11-12.21-11.11-12.21l.19-21.17S174,81.12,169.32,77c-3.84-3.39-5.12-9.08-2.1-12.12s8.57-2.19,10.68,2.17c0,0,7.47.31,17.43-5.11A28,28,0,0,0,209.85,41.25Z"/><path class="cls-18" d="M199.87,66.12a1.93,1.93,0,1,1-2-1.92A2,2,0,0,1,199.87,66.12Z"/><g class="cls-19"><path class="cls-20" d="M200.33,79.13l4.48,1.45a2.31,2.31,0,0,1-2.92,1.59A2.46,2.46,0,0,1,200.33,79.13Z"/></g><path class="cls-18" d="M215.71,60.26l-3.89-2.72a2.28,2.28,0,0,1,3.25-.65A2.49,2.49,0,0,1,215.71,60.26Z"/><path class="cls-18" d="M214.8,64.79a1.93,1.93,0,1,1-2-1.92A2,2,0,0,1,214.8,64.79Z"/><g class="cls-19"><polygon class="cls-20" points="205.7 63.64 205.96 75.26 212.08 73.39 205.7 63.64"/></g><g class="cls-19"><path class="cls-20" d="M197.08,89.84c-4.93-.67-15.07-3.63-16.63-7.65A10.34,10.34,0,0,0,184,87.33c3,2.61,13.09,5.58,13.09,5.58Z"/></g><path class="cls-17" d="M163.5,99.14c-9.68.69-13.67,1.92-19.06,13.88-4.85,10.76-16.45,38.57-19.35,44.77s-3.45,8.7-1,15.18c2,5.29,18.34,35.68,20.12,40.11s2.58,8.91,5.63,14.07,7.87,10.2,11.68,11.4c5.65,1.77,13-.7,13.22-4.1s-8.29-9.11-10.6-16.68a33.25,33.25,0,0,0,4.83,2.63c2.3.94,4.85.74,5.62-.56s-1.53-2.1-3.57-4.13c-1.22-1.21-3.39-3.92-6.14-6.32-1.87-1.63-4.94-2.11-6.31-3.89-.75-.94-4.11-9.18-6.63-16.51-3.12-9.08-7.23-21.18-7.23-21.18l16.81-35.05S174.71,119.65,163.5,99.14Z"/><path class="cls-9" d="M144.18,213.08s3.88-7.83,14.36-7.58l-2.77-6.16s-10.23.73-14.55,7.65Z"/><path class="cls-18" d="M143.06,206.43l2.28,3.19a2.11,2.11,0,0,0,3,.47l4-3a2.31,2.31,0,0,0,.52-3.11l-2.09-3.08a2.11,2.11,0,0,0-3-.53l-4.24,3A2.18,2.18,0,0,0,143.06,206.43Z"/><path class="cls-8" d="M142.3,206.35l2.28,3.2a2.11,2.11,0,0,0,3,.46l4-3a2.29,2.29,0,0,0,.51-3.1L150,200.79a2.1,2.1,0,0,0-3-.53l-4.25,3.05A2.19,2.19,0,0,0,142.3,206.35Z"/><path class="cls-4" d="M151.68,205.3a1.47,1.47,0,0,1-.57,1l-4,3a1.25,1.25,0,0,1-1,.25,1.28,1.28,0,0,1-.86-.53L143,205.88a1.36,1.36,0,0,1,.31-1.9l4.25-3a1.27,1.27,0,0,1,1-.23,1.32,1.32,0,0,1,.85.56l2.09,3.08a1.45,1.45,0,0,1,.23,1Z"/></g></g></g></g></svg>